<?xml version="1.0" standalone="no"?>
<!DOCTYPE svg PUBLIC "-//W3C//DTD SVG 20010904//EN"
 "http://www.w3.org/TR/2001/REC-SVG-20010904/DTD/svg10.dtd">
<svg version="1.0" xmlns="http://www.w3.org/2000/svg"
 width="1920.000000pt" height="733.000000pt" viewBox="0 0 1920.000000 733.000000"
 preserveAspectRatio="xMidYMid meet">

<g transform="translate(0.000000,733.000000) scale(0.100000,-0.100000)"
fill="#000000" stroke="none">
<path d="M4105 4450 c-3 -6 1 -7 9 -4 18 7 21 14 7 14 -6 0 -13 -4 -16 -10z"/>
<path d="M4030 4405 c-8 -9 -8 -15 -2 -15 12 0 26 19 19 26 -2 2 -10 -2 -17
-11z"/>
<path d="M14590 4400 c-36 -5 -94 -18 -130 -30 -71 -24 -227 -50 -300 -50 -26
0 -78 12 -116 26 -86 32 -100 34 -96 12 2 -12 -4 -18 -17 -18 -11 0 -23 -5
-26 -10 -3 -6 -17 -7 -31 -4 -23 6 -24 4 -19 -19 5 -17 3 -25 -7 -24 -7 0 -30
-1 -51 -1 -37 -2 -38 -3 -35 -34 2 -22 9 -35 21 -38 26 -7 26 -24 0 -28 -14
-2 -20 -8 -16 -18 3 -9 -2 -14 -15 -14 -26 0 -48 -25 -28 -33 8 -3 24 -3 35 0
31 8 26 -6 -19 -56 -42 -47 -46 -63 -8 -37 12 9 29 16 37 16 33 0 -36 -50
-139 -101 -100 -50 -218 -122 -231 -142 -3 -5 -10 -9 -15 -10 -11 -2 -41 -26
-63 -49 -8 -10 -20 -18 -26 -18 -27 0 -235 -251 -265 -321 -10 -22 -10 -22 -4
6 3 17 13 38 21 48 9 9 14 20 11 23 -8 8 -59 -68 -98 -146 -18 -36 -37 -71
-44 -79 -6 -8 -12 -24 -12 -35 -1 -12 -5 -41 -9 -66 -10 -62 14 -40 26 24 8
42 45 136 53 136 2 0 2 -9 -1 -19 -4 -16 -1 -19 18 -14 21 6 22 4 16 -35 -3
-24 -1 -40 4 -36 5 3 9 1 9 -3 0 -5 -9 -14 -21 -21 -12 -8 -18 -19 -15 -28 3
-7 -3 -22 -13 -31 -10 -10 -22 -29 -25 -43 -6 -20 -5 -22 4 -10 9 12 13 12 17
2 3 -9 15 2 32 30 22 37 26 40 29 21 3 -18 -18 -98 -44 -168 -12 -34 16 -2 37
42 l19 38 -5 -48 c-4 -51 9 -56 20 -8 3 16 12 35 19 41 24 19 27 -17 5 -67
l-20 -48 22 23 c34 37 40 9 13 -61 -13 -33 -22 -62 -21 -64 2 -2 18 25 35 60
43 90 54 96 93 58 17 -17 35 -31 40 -31 5 0 9 -7 9 -15 0 -8 17 -31 38 -52 20
-21 49 -56 64 -78 33 -49 78 -160 78 -193 0 -39 18 -62 49 -62 45 0 54 -19 42
-86 -6 -31 -22 -82 -36 -112 -14 -30 -25 -64 -25 -76 0 -12 -11 -64 -24 -115
-22 -82 -22 -92 -8 -86 10 3 5 -5 -10 -17 -17 -15 -33 -43 -42 -78 -8 -30 -21
-74 -28 -98 -11 -37 -10 -50 5 -92 13 -37 15 -55 7 -69 -17 -33 -11 -45 10
-19 21 27 76 42 88 24 4 -6 8 -22 10 -36 5 -51 7 -56 24 -75 18 -18 18 -18 20
1 1 10 2 26 4 34 1 8 2 21 3 28 1 6 8 12 16 12 8 0 15 7 15 15 0 8 7 15 15 15
8 0 15 -4 15 -10 0 -5 5 -10 10 -10 6 0 10 6 10 14 0 16 50 60 58 51 3 -2 0
-30 -6 -62 -18 -94 -23 -143 -14 -143 5 0 14 21 21 48 7 26 18 60 25 76 l12
30 22 -37 c23 -40 48 -51 37 -17 -8 24 3 26 20 4 16 -22 53 -9 61 21 8 32 30
39 39 12 6 -20 8 -18 17 13 5 19 14 43 19 53 5 10 7 23 3 28 -4 8 0 7 14 0 15
-8 21 -8 25 2 3 8 11 6 27 -8 12 -11 25 -19 29 -19 3 1 12 -1 20 -4 19 -7 29
15 37 77 4 35 3 61 -5 73 -16 25 -14 41 5 34 10 -4 14 -1 11 6 -2 7 1 29 8 48
7 19 10 52 7 74 -3 26 -1 37 6 32 6 -4 8 -14 5 -24 -6 -16 -6 -16 10 0 15 14
17 32 13 115 -5 112 -14 156 -28 147 -6 -4 -5 4 2 16 13 24 5 70 -13 82 -9 6
-8 8 1 8 7 0 11 4 7 10 -10 15 -13 135 -5 171 8 38 15 29 28 -36 l8 -40 110
-3 111 -2 49 50 c41 42 49 55 49 89 0 38 -2 40 -25 35 -55 -12 -145 -46 -212
-80 -38 -19 -67 -30 -63 -24 10 16 141 80 219 106 79 27 96 39 96 66 0 10 7
30 16 43 9 14 13 25 9 25 -5 0 0 9 10 20 19 21 23 18 -50 33 -11 3 1 5 28 6
26 0 47 5 47 10 0 5 5 22 12 38 6 15 13 39 15 52 5 28 43 97 71 126 21 24 36
55 33 73 -1 6 5 12 12 12 8 0 14 8 13 18 0 10 5 16 15 14 9 -1 22 12 32 33 15
31 15 34 0 28 -11 -4 -14 -3 -9 5 4 7 13 12 20 12 8 0 27 16 44 36 19 23 35
33 43 28 8 -5 10 -2 6 8 -3 9 3 24 14 34 15 13 19 14 19 3 0 -9 6 -7 18 8 9
12 28 23 42 25 14 2 24 9 23 16 -2 7 6 11 19 9 14 -1 23 4 23 13 0 11 11 14
43 13 30 -2 41 1 36 9 -5 7 -2 9 8 6 11 -5 14 2 13 29 0 21 5 37 12 40 7 3 13
15 13 28 0 13 8 26 18 30 16 7 15 8 -3 15 -11 5 -14 9 -7 9 19 1 62 -29 62
-44 0 -7 -6 -15 -14 -18 -7 -3 -13 0 -12 6 0 7 -3 14 -7 17 -13 8 -36 -55 -26
-71 7 -11 9 -11 9 3 0 9 12 23 28 30 22 11 27 20 27 51 0 34 1 36 15 18 20
-24 51 -35 43 -15 -4 12 0 14 21 8 16 -4 26 -2 26 5 0 6 -9 11 -20 11 -14 0
-18 5 -13 16 4 11 8 12 13 4 5 -8 12 -5 24 11 10 15 12 27 6 33 -19 19 -10 26
10 9 11 -9 15 -20 10 -23 -13 -8 -8 -70 6 -70 5 0 16 6 23 13 11 10 12 7 6
-13 -4 -14 -12 -28 -17 -31 -5 -3 -2 -9 7 -13 23 -8 27 -8 20 3 -3 5 -1 12 5
16 5 3 10 -1 10 -10 0 -11 5 -15 16 -11 12 4 14 1 9 -14 -7 -21 10 -29 18 -7
2 6 7 9 11 6 3 -3 -1 -14 -8 -25 -14 -18 -15 -18 -34 -1 -15 14 -22 15 -27 6
-5 -7 -1 -16 9 -21 9 -5 14 -13 11 -19 -3 -5 1 -6 9 -3 9 3 16 1 16 -5 0 -6
-6 -11 -12 -12 -7 0 -4 -4 7 -9 19 -9 19 -9 -2 -16 -28 -8 -29 -20 -3 -34 11
-6 20 -18 20 -26 0 -11 6 -13 21 -9 13 5 19 3 15 -3 -3 -5 8 -12 25 -16 30 -6
32 -26 3 -26 -20 0 -13 -20 11 -34 27 -16 55 -45 55 -57 0 -5 4 -8 10 -4 14 9
49 -17 43 -32 -4 -10 -9 -11 -18 -3 -9 8 -15 8 -20 0 -3 -5 1 -10 9 -10 9 0
16 -4 16 -9 0 -5 10 -7 23 -4 13 4 19 2 14 -3 -8 -9 -12 -10 -39 -13 -9 -1 -9
-4 0 -13 8 -8 15 -8 25 1 11 9 17 8 27 -4 8 -10 9 -15 2 -15 -6 0 -9 -7 -6
-15 5 -11 2 -13 -10 -9 -21 8 -20 -8 3 -37 11 -15 16 -31 11 -43 -7 -22 18
-59 33 -49 6 4 7 1 2 -7 -5 -8 -1 -18 10 -27 11 -7 14 -13 8 -13 -8 0 -9 -10
-2 -32 5 -17 7 -34 4 -36 -10 -10 19 -32 42 -32 14 0 21 -4 18 -10 -3 -5 -16
-10 -28 -10 -16 0 -18 -3 -8 -9 18 -11 -3 -51 -27 -51 -15 -1 -15 -2 2 -11 13
-8 20 -8 25 0 9 13 29 -39 35 -92 3 -21 8 -42 11 -47 9 -15 -5 -12 -21 5 -9 8
-12 15 -7 15 4 0 -1 6 -12 12 -19 11 -19 11 0 19 16 6 16 8 4 8 -9 1 -22 -6
-29 -14 -7 -8 -16 -12 -21 -9 -5 3 1 -11 14 -30 17 -27 27 -35 43 -31 17 4 23
-1 27 -23 7 -34 -8 -66 -18 -39 -9 21 -55 23 -55 2 0 -18 -29 -9 -47 14 -9 12
-14 13 -23 4 -10 -9 -5 -15 19 -27 25 -13 74 -17 247 -21 166 -3 219 -7 225
-17 5 -7 9 -32 9 -54 0 -23 7 -61 15 -85 12 -34 14 -67 9 -151 -8 -125 0 -162
22 -109 19 45 29 34 53 -58 15 -57 17 -86 11 -134 -15 -115 -4 -176 37 -215
18 -16 31 -21 46 -15 12 4 28 6 35 5 6 -2 12 2 12 8 0 6 16 18 36 26 30 13 38
13 45 2 11 -16 12 -81 2 -75 -5 3 -9 -16 -9 -43 -2 -41 1 -50 22 -61 13 -7 24
-18 24 -26 0 -21 17 -15 24 9 6 20 7 21 16 6 6 -10 18 -14 30 -11 21 5 27 19
11 25 -4 2 -5 12 0 23 6 17 8 17 8 3 1 -27 20 -22 27 7 5 20 11 24 30 21 13
-3 24 0 24 5 0 5 5 9 10 9 6 0 10 -8 10 -17 0 -10 5 -25 10 -33 7 -12 12 -8
23 19 10 22 17 29 22 21 5 -9 9 -9 14 -1 5 7 15 4 30 -11 23 -21 24 -21 37 -3
8 10 14 13 14 7 0 -7 5 -12 11 -12 7 0 9 12 5 35 -5 27 -4 35 8 35 8 0 24 -16
36 -35 12 -19 24 -35 26 -35 10 0 2 30 -12 44 -8 9 -17 33 -20 53 -5 35 -4 36
8 17 11 -19 15 -20 26 -8 8 8 17 27 22 43 8 30 1 211 -9 211 -3 0 -6 15 -7 33
0 17 -6 70 -13 117 -6 47 -14 101 -16 120 -4 34 -41 130 -51 130 -6 0 7 -53
17 -66 5 -6 6 -13 3 -17 -3 -3 -1 -15 6 -26 12 -23 -1 -29 -17 -8 -18 22 -45
125 -44 170 0 9 -4 15 -8 12 -5 -2 -16 16 -26 40 -9 25 -20 45 -25 45 -5 0
-11 18 -15 40 -4 22 -11 40 -16 40 -5 0 -8 -3 -8 -7 3 -20 -3 -23 -22 -13 -13
7 -18 17 -15 27 4 9 1 22 -5 29 -16 20 -28 80 -18 95 6 10 12 9 28 -5 12 -11
21 -25 21 -32 0 -7 8 -18 19 -23 10 -6 29 -35 42 -65 13 -31 28 -56 32 -56 11
0 -1 36 -24 74 -11 17 -19 38 -19 47 0 9 -7 22 -15 29 -11 9 -15 32 -15 82 0
74 17 88 18 14 1 -30 10 -56 27 -81 14 -21 25 -49 25 -62 0 -38 42 -103 66
-103 21 0 21 1 -9 75 -17 41 -28 78 -24 82 4 3 22 -7 40 -24 40 -38 108 -73
142 -73 21 0 25 5 25 29 0 17 -7 59 -15 96 -17 70 -12 150 10 195 7 14 18 51
25 83 8 32 18 56 24 54 17 -5 105 -257 105 -301 1 -30 4 -37 12 -29 9 9 8 28
-1 77 -11 55 -11 67 1 82 9 11 13 35 11 70 -3 39 0 54 12 61 12 6 14 16 8 38
-11 38 -32 45 -29 9 1 -15 -3 -29 -9 -31 -14 -5 -26 48 -14 61 5 5 4 20 -1 34
-5 14 -7 32 -5 39 3 8 -4 33 -15 56 -21 41 -21 41 -2 24 20 -18 21 -17 28 20
10 53 22 25 28 -65 8 -111 20 -101 14 11 -4 71 -2 97 6 94 7 -2 15 -19 18 -38
4 -19 11 -54 17 -79 6 -25 16 -65 21 -90 l9 -45 -4 50 c-11 129 -12 185 -3
191 5 3 12 -2 15 -10 3 -9 10 -13 15 -10 5 3 25 -28 45 -70 20 -41 43 -81 52
-88 48 -40 -61 191 -123 258 -16 18 -39 49 -50 68 -11 19 -51 67 -89 106 -63
65 -86 84 -71 60 3 -5 2 -10 -3 -10 -11 0 -30 21 -30 34 0 5 -13 17 -29 27
-15 10 -24 19 -19 19 5 0 -2 9 -15 21 -13 11 -40 35 -59 52 -44 40 -115 93
-115 87 0 -3 -12 5 -25 18 -14 13 -53 37 -87 54 -35 17 -63 33 -63 35 0 2 5 1
11 -3 7 -4 10 -2 8 5 -3 7 -51 36 -109 64 -63 31 -109 61 -115 74 -6 12 -22
31 -36 42 l-24 20 28 1 c15 0 27 3 27 6 0 10 -50 54 -60 54 -17 0 -49 42 -43
56 3 8 0 14 -7 14 -6 0 -9 4 -6 9 7 11 -54 23 -139 28 -89 5 -100 6 -105 14
-3 4 -28 3 -55 -2 -28 -5 -84 -10 -126 -12 -78 -2 -78 -2 -219 68 -96 48 -363
72 -495 45 -86 -18 -85 -17 -85 -40 0 -27 -22 -25 -57 4 -15 12 -39 29 -52 36
-28 14 -273 21 -371 10z m859 -173 c1 7 12 9 29 6 15 -2 37 -5 50 -5 13 0 22
-6 22 -15 0 -12 3 -13 14 -4 16 13 42 6 50 -14 2 -7 -1 -16 -9 -19 -7 -2 -16
1 -19 9 -3 10 -14 11 -40 5 -20 -4 -36 -6 -36 -3 0 3 -6 0 -14 -6 -7 -6 -25
-12 -40 -13 -16 -1 -26 -8 -26 -18 -1 -12 -3 -11 -11 3 -6 10 -9 27 -6 38 3
12 1 17 -5 12 -12 -7 -2 14 17 33 7 9 12 8 17 -5 4 -9 7 -11 7 -4z m-57 -42
c4 -5 8 -17 8 -25 -1 -12 -4 -11 -15 4 -13 17 -15 17 -39 -7 -24 -24 -26 -25
-26 -6 0 39 52 64 72 34z m-87 -32 c-2 -21 -4 -42 -4 -46 -1 -5 -5 -6 -10 -3
-14 9 -20 58 -7 72 19 22 25 16 21 -23z m-695 7 c0 -5 -2 -10 -4 -10 -3 0 -8
5 -11 10 -3 6 -1 10 4 10 6 0 11 -4 11 -10z m27 -12 c-3 -8 -6 -5 -6 6 -1 11
2 17 5 13 3 -3 4 -12 1 -19z m593 -9 c0 -6 -4 -7 -10 -4 -5 3 -10 11 -10 16 0
6 5 7 10 4 6 -3 10 -11 10 -16z m-481 -15 c5 4 12 3 15 -2 2 -4 -5 -9 -17 -9
-23 -2 -47 13 -47 30 0 5 9 2 19 -7 11 -10 24 -15 30 -12z m631 10 c0 -8 -4
-13 -9 -10 -5 4 -12 0 -14 -6 -4 -8 -6 -7 -6 4 -1 14 6 21 27 27 1 1 2 -6 2
-15z m-118 -16 c-7 -7 -12 -8 -12 -2 0 14 12 26 19 19 2 -3 -1 -11 -7 -17z
m-352 -52 c0 -3 -4 -8 -10 -11 -5 -3 -10 -1 -10 4 0 6 5 11 10 11 6 0 10 -2
10 -4z m925 -106 c17 -11 25 -20 19 -20 -5 0 -19 6 -29 14 -10 7 -26 11 -36 9
-9 -3 -20 0 -23 6 -12 19 37 12 69 -9z m60 -39 c3 -11 12 -22 20 -25 8 -3 15
-13 15 -22 0 -12 -7 -9 -30 13 -29 27 -39 53 -21 53 5 0 12 -9 16 -19z m-825
-65 c0 -3 -4 -8 -10 -11 -5 -3 -10 -1 -10 4 0 6 5 11 10 11 6 0 10 -2 10 -4z
m117 -38 c-3 -7 -5 -2 -5 12 0 14 2 19 5 13 2 -7 2 -19 0 -25z m-207 2 c0 -5
-4 -10 -10 -10 -5 0 -10 5 -10 10 0 6 5 10 10 10 6 0 10 -4 10 -10z m640 -8
c0 -5 -7 -17 -15 -28 -14 -18 -14 -17 -4 9 12 27 19 34 19 19z m-573 -24 c-3
-8 -6 -5 -6 6 -1 11 2 17 5 13 3 -3 4 -12 1 -19z m-687 4 c0 -5 -9 -17 -20
-27 -40 -36 -6 -118 49 -122 26 -2 81 25 81 40 0 4 6 5 13 1 6 -4 -5 9 -25 28
-42 39 -45 50 -23 68 40 33 103 -56 71 -101 -22 -31 -76 -62 -121 -68 -35 -6
-44 -3 -72 26 -44 43 -45 92 -4 134 29 28 51 37 51 21z m610 -12 c0 -5 -5 -10
-11 -10 -5 0 -7 5 -4 10 3 6 8 10 11 10 2 0 4 -4 4 -10z m800 -5 c61 -32 94
-106 66 -147 -19 -26 -20 -38 -5 -38 5 0 15 14 20 30 13 36 29 39 29 6 0 -30
-39 -87 -70 -103 -14 -7 -19 -13 -12 -13 31 0 85 46 104 89 5 13 7 12 7 -4 1
-28 -24 -62 -59 -80 -31 -16 -85 -21 -76 -6 3 5 -7 11 -22 14 -69 14 -119 39
-136 70 l-18 32 23 -27 c29 -33 68 -48 117 -47 l37 1 -39 8 c-21 4 -41 12 -45
18 -4 6 -17 13 -30 15 -12 2 -31 17 -42 33 -10 16 -19 23 -19 16 0 -7 -4 -10
-10 -7 -5 3 -10 1 -10 -6 0 -7 -2 -10 -5 -7 -10 10 47 138 66 148 29 16 36 11
11 -8 -37 -28 -35 -88 3 -118 51 -41 107 -26 121 32 5 24 4 27 -7 17 -40 -38
-116 11 -87 56 7 12 22 22 33 22 13 1 10 4 -10 9 l-30 8 33 1 c18 0 46 -6 62
-14z m-520 -15 c0 -5 -5 -10 -11 -10 -5 0 -7 5 -4 10 3 6 8 10 11 10 2 0 4 -4
4 -10z m-1855 -10 c-3 -5 -12 -10 -18 -10 -7 0 -6 4 3 10 19 12 23 12 15 0z
m3395 0 c8 -5 11 -10 5 -10 -5 0 -17 5 -25 10 -8 5 -10 10 -5 10 6 0 17 -5 25
-10z m-1208 -22 c-7 -7 -12 -8 -12 -2 0 14 12 26 19 19 2 -3 -1 -11 -7 -17z
m-2242 -21 c0 -1 -30 -31 -66 -67 -37 -36 -62 -56 -56 -45 14 28 122 127 122
112z m1873 -26 c-4 -15 -8 -19 -13 -10 -5 6 -3 18 3 24 16 17 17 14 10 -14z
m1713 -12 c4 -8 1 -8 -14 0 -12 6 -24 16 -28 22 -4 8 -1 8 14 0 12 -6 24 -16
28 -22z m-2383 -52 c-17 -34 -40 -43 -128 -51 -56 -4 -63 -4 -32 4 65 17 117
50 140 88 21 35 21 36 28 11 3 -13 0 -36 -8 -52z m511 38 c-4 -8 1 -17 10 -21
24 -9 20 -18 -14 -31 -22 -8 -32 -8 -37 0 -3 7 -3 9 2 5 9 -9 35 9 35 24 0 6
-7 8 -15 4 -13 -4 -14 -2 -5 14 12 23 32 27 24 5z m-841 -43 c-8 -33 -20 -18
-15 19 3 23 7 28 13 17 4 -8 5 -24 2 -36z m691 33 c-4 -8 -9 -15 -13 -15 -4 0
-8 7 -8 15 0 8 6 15 13 15 8 0 11 -6 8 -15z m2036 -11 c0 -2 -9 0 -20 6 -11 6
-20 13 -20 16 0 2 9 0 20 -6 11 -6 20 -13 20 -16z m-125 -4 c16 -17 16 -20 3
-15 -9 4 -19 13 -22 21 -7 19 -2 18 19 -6z m-1815 6 c0 -2 -9 -6 -20 -9 -11
-3 -20 -1 -20 4 0 5 9 9 20 9 11 0 20 -2 20 -4z m-700 -46 c0 -5 -2 -10 -4
-10 -3 0 -8 5 -11 10 -3 6 -1 10 4 10 6 0 11 -4 11 -10z m715 -10 c3 -5 -1
-10 -9 -10 -9 0 -16 5 -16 10 0 6 4 10 9 10 6 0 13 -4 16 -10z m-1832 -22 c-5
-7 -19 -26 -31 -42 -12 -16 -22 -22 -22 -15 0 8 11 27 25 42 26 27 46 38 28
15z m1827 -46 c0 -13 -3 -12 -19 4 -10 10 -16 23 -14 27 7 12 33 -13 33 -31z
m1904 16 c57 -57 196 -257 196 -283 0 -5 -10 6 -21 25 -12 19 -25 37 -30 38
-5 2 -7 8 -3 13 3 5 1 9 -5 9 -5 0 -22 19 -36 43 -15 23 -24 34 -21 24 3 -11
2 -16 -4 -12 -6 3 -10 15 -10 26 0 11 -4 17 -10 14 -5 -3 -7 0 -4 8 3 8 -7 25
-23 38 -28 24 -68 79 -58 79 3 0 16 -10 29 -22z m-1854 2 c0 -5 -2 -10 -4 -10
-3 0 -8 5 -11 10 -3 6 -1 10 4 10 6 0 11 -4 11 -10z m669 -26 c14 -12 -19 -1
-35 12 -18 14 -18 14 6 3 14 -6 27 -13 29 -15z m-772 -16 c-3 -8 -6 -5 -6 6
-1 11 2 17 5 13 3 -3 4 -12 1 -19z m-1607 -58 c-6 -11 -13 -20 -16 -20 -2 0 0
9 6 20 6 11 13 20 16 20 2 0 0 -9 -6 -20z m3631 -67 c13 -16 12 -17 -3 -4 -10
7 -18 15 -18 17 0 8 8 3 21 -13z m-3671 -13 c0 -5 -5 -10 -11 -10 -5 0 -7 5
-4 10 3 6 8 10 11 10 2 0 4 -4 4 -10z m-29 -47 c-12 -20 -14 -14 -5 12 4 9 9
14 11 11 3 -2 0 -13 -6 -23z m-181 7 c0 -5 -4 -10 -10 -10 -5 0 -10 5 -10 10
0 6 5 10 10 10 6 0 10 -4 10 -10z m-34 -49 c-9 -16 -23 -31 -32 -35 -15 -6
-15 -4 -2 16 8 13 18 29 22 36 15 25 26 11 12 -17z m3924 -16 c0 -5 -5 -3 -10
5 -5 8 -10 20 -10 25 0 6 5 3 10 -5 5 -8 10 -19 10 -25z m-1312 -77 c3 2 8 -1
10 -7 2 -7 -4 -8 -20 -2 -13 4 -24 17 -26 27 -3 18 -2 18 13 -1 9 -11 19 -19
23 -17z m1483 -186 c10 -2 14 -19 13 -66 -2 -104 -13 -100 -56 19 -37 103 -38
109 -21 127 17 19 18 18 34 -29 8 -26 22 -49 30 -51z m-1471 58 c0 -5 -7 -7
-15 -4 -8 4 -15 8 -15 10 0 2 7 4 15 4 8 0 15 -4 15 -10z m-10 -30 c0 -5 -4
-10 -10 -10 -5 0 -10 5 -10 10 0 6 5 10 10 10 6 0 10 -4 10 -10z m235 -110 c3
-5 -1 -10 -9 -10 -9 0 -16 5 -16 10 0 6 4 10 9 10 6 0 13 -4 16 -10z m772
-157 c4 -43 2 -53 -11 -53 -8 0 -21 10 -27 22 -12 23 -20 152 -11 177 8 21 44
-85 49 -146z m-827 117 c12 -8 11 -10 -7 -10 -13 0 -23 5 -23 10 0 13 11 13
30 0z m-1562 -7 c-10 -2 -26 -2 -35 0 -10 3 -2 5 17 5 19 0 27 -2 18 -5z m-8
-37 c0 -3 -4 -8 -10 -11 -5 -3 -10 -1 -10 4 0 6 5 11 10 11 6 0 10 -2 10 -4z
m2330 -112 c0 -14 -4 -23 -10 -19 -5 3 -10 15 -10 26 0 10 5 19 10 19 6 0 10
-12 10 -26z m-6 -49 c3 -8 1 -15 -4 -15 -6 0 -10 7 -10 15 0 8 2 15 4 15 2 0
6 -7 10 -15z m-2529 -12 c7 -20 -6 -93 -17 -93 -5 0 -8 8 -7 18 4 39 -2 73
-11 67 -5 -3 -7 0 -4 8 6 18 32 18 39 0z m-295 -58 c-14 -16 -40 -20 -40 -6 0
10 17 19 39 20 11 1 11 -2 1 -14z m-20 -119 c0 -2 -7 -9 -15 -16 -13 -11 -14
-10 -9 4 5 14 24 23 24 12z m-20 -51 c0 -8 -4 -15 -9 -15 -13 0 -22 16 -14 24
11 11 23 6 23 -9z m60 -49 c0 -3 -13 -14 -30 -26 -16 -12 -30 -17 -30 -11 0 5
12 16 28 24 34 19 32 18 32 13z m-155 -165 c-3 -5 3 -12 12 -14 14 -4 13 -5
-4 -6 -23 -1 -30 9 -16 22 9 10 15 8 8 -2z m442 -38 c-3 -10 -5 -2 -5 17 0 19
2 27 5 18 2 -10 2 -26 0 -35z m2393 26 c0 -6 -4 -7 -10 -4 -5 3 -10 11 -10 16
0 6 5 7 10 4 6 -3 10 -11 10 -16z m-320 -10 c0 -6 -4 -7 -10 -4 -5 3 -10 11
-10 16 0 6 5 7 10 4 6 -3 10 -11 10 -16z m300 -19 c0 -5 -4 -10 -10 -10 -5 0
-10 5 -10 10 0 6 5 10 10 10 6 0 10 -4 10 -10z m-2410 -56 c0 -8 -4 -12 -10
-9 -5 3 -10 13 -10 21 0 8 5 12 10 9 6 -3 10 -13 10 -21z m45 -34 c3 -5 1 -10
-4 -10 -6 0 -11 5 -11 10 0 6 2 10 4 10 3 0 8 -4 11 -10z m2361 -68 c-12 -12
-18 8 -10 35 l8 28 4 -28 c2 -16 1 -31 -2 -35z m-2436 -20 c0 -15 -2 -15 -10
-2 -13 20 -13 33 0 25 6 -3 10 -14 10 -23z m2875 -22 c3 -5 1 -10 -4 -10 -6 0
-11 5 -11 10 0 6 2 10 4 10 3 0 8 -4 11 -10z m2 -210 c1 -11 -4 -20 -13 -20
-17 0 -19 26 -1 33 6 3 12 6 12 6 1 1 1 -8 2 -19z m-3497 -32 c0 6 5 12 10 12
7 0 7 -7 -1 -21 -9 -17 -13 -19 -20 -8 -5 8 -9 19 -9 24 0 6 5 3 10 -5 6 -10
10 -11 10 -2z m430 -34 c0 -8 -5 -12 -10 -9 -6 4 -8 11 -5 16 9 14 15 11 15
-7z m-336 -69 c-4 -8 -11 -15 -16 -15 -6 0 -5 6 2 15 7 8 14 15 16 15 2 0 1
-7 -2 -15z"/>
<path d="M3985 4370 c-3 -5 -2 -10 4 -10 5 0 13 5 16 10 3 6 2 10 -4 10 -5 0
-13 -4 -16 -10z"/>
<path d="M1880 4352 c0 -4 10 -13 23 -21 22 -14 22 -14 3 8 -20 22 -26 25 -26
13z"/>
<path d="M4390 4348 c0 -9 5 -20 11 -23 17 -11 18 -2 3 19 -12 17 -14 17 -14
4z"/>
<path d="M1795 4340 c-3 -5 -2 -10 4 -10 5 0 13 5 16 10 3 6 2 10 -4 10 -5 0
-13 -4 -16 -10z"/>
<path d="M3920 4320 c0 -5 -7 -10 -16 -10 -11 0 -14 -5 -10 -16 5 -12 1 -14
-15 -9 -19 6 -21 4 -15 -18 3 -14 2 -29 -4 -32 -5 -3 -10 -1 -10 5 0 7 -6 5
-15 -4 -8 -8 -15 -21 -15 -30 0 -18 -17 -30 -22 -16 -2 6 -19 -13 -38 -41 -36
-54 -65 -77 -54 -42 4 10 -6 1 -21 -19 -16 -21 -31 -38 -35 -38 -4 0 -10 -10
-14 -22 -5 -18 -8 -20 -15 -9 -15 23 -26 -12 -23 -68 4 -46 6 -50 22 -41 10 6
22 19 25 30 4 12 14 20 23 19 33 -3 61 14 71 42 5 16 13 29 17 29 3 0 4 -7 0
-15 -7 -20 4 -19 20 3 18 24 17 32 -5 32 -10 0 -30 -14 -44 -31 l-25 -31 -7
32 c-4 17 -4 34 -1 37 3 4 6 -1 6 -10 0 -23 11 -21 43 9 15 14 31 22 36 19 5
-3 12 -1 16 5 3 5 0 10 -8 10 -18 0 -30 27 -15 36 5 4 14 0 19 -7 7 -12 9 -11
10 1 1 8 1 18 0 22 0 4 15 22 35 40 19 18 47 45 62 59 15 14 41 33 57 43 l30
17 -28 -6 c-26 -5 -27 -4 -17 15 9 16 8 20 -5 20 -8 0 -15 -4 -15 -10z m-245
-299 c3 -5 1 -12 -5 -16 -5 -3 -10 1 -10 9 0 18 6 21 15 7z m-39 -42 c3 -6 2
-15 -4 -21 -6 -6 -11 -2 -15 11 -5 22 7 29 19 10z"/>
<path d="M1825 4310 c3 -5 13 -10 21 -10 8 0 12 5 9 10 -3 6 -13 10 -21 10 -8
0 -12 -4 -9 -10z"/>
<path d="M1920 4306 c0 -2 13 -6 29 -8 17 -2 28 -1 25 4 -5 8 -54 12 -54 4z"/>
<path d="M4410 4291 c0 -11 26 -22 34 -14 3 3 3 10 0 14 -7 12 -34 11 -34 0z"/>
<path d="M1925 4270 c3 -5 17 -10 31 -10 14 0 22 4 19 10 -3 6 -17 10 -31 10
-14 0 -22 -4 -19 -10z"/>
<path d="M2020 4271 c0 -7 -6 -11 -15 -7 -9 3 -15 0 -15 -9 0 -16 18 -19 37
-7 8 5 9 13 3 22 -8 12 -10 12 -10 1z"/>
<path d="M4390 4267 c0 -8 11 -19 25 -25 14 -6 25 -8 25 -3 0 5 -11 16 -25 25
-20 13 -25 14 -25 3z"/>
<path d="M1701 4253 c-19 -17 -20 -20 -7 -45 9 -18 11 -30 5 -34 -6 -3 -8 -12
-5 -20 3 -8 1 -14 -4 -14 -6 0 -10 -4 -10 -10 0 -5 6 -7 13 -5 9 4 12 -10 12
-52 0 -32 4 -58 10 -58 5 0 8 10 7 22 -2 11 1 24 7 27 12 8 2 68 -13 78 -7 5
-4 13 9 23 14 12 16 18 7 21 -6 3 -9 10 -6 15 3 6 0 17 -7 26 -11 13 -10 17 6
29 10 8 14 14 8 14 -6 0 -20 -8 -32 -17z"/>
<path d="M2058 4222 c-4 -15 0 -22 15 -26 30 -8 34 1 10 25 -20 21 -20 21 -25
1z"/>
<path d="M4419 4214 c6 -4 6 -14 -1 -30 -10 -20 -8 -28 6 -42 16 -16 17 -16
10 1 -3 10 -1 17 6 17 6 0 8 5 3 13 -4 6 -8 18 -8 26 0 8 -6 15 -13 17 -7 1
-8 0 -3 -2z"/>
<path d="M2110 4200 c0 -6 8 -14 18 -18 12 -5 6 -8 -23 -12 l-40 -5 65 -23
c36 -12 75 -24 88 -26 25 -4 42 -16 22 -16 -10 0 -10 -3 0 -15 7 -8 21 -15 31
-15 11 0 19 -7 19 -15 0 -13 3 -13 13 -3 11 10 7 17 -22 42 -20 17 -38 34 -41
38 -3 3 -21 8 -40 10 -25 2 -38 10 -47 27 -13 27 -43 49 -43 31z"/>
<path d="M3865 4189 c-4 -6 -5 -13 -2 -16 7 -7 27 6 27 18 0 12 -17 12 -25 -2z"/>
<path d="M2000 4180 c0 -5 5 -10 10 -10 6 0 10 5 10 10 0 6 -4 10 -10 10 -5 0
-10 -4 -10 -10z"/>
<path d="M2170 4176 c0 -9 5 -16 10 -16 6 0 10 4 10 9 0 6 -4 13 -10 16 -5 3
-10 -1 -10 -9z"/>
<path d="M3821 4122 c-16 -33 -11 -34 22 -8 27 22 27 24 9 28 -14 4 -23 -1
-31 -20z"/>
<path d="M2116 4121 c-7 -11 17 -21 52 -21 20 1 23 3 12 9 -28 16 -58 22 -64
12z"/>
<path d="M4410 4121 c0 -6 4 -13 10 -16 6 -3 7 1 4 9 -7 18 -14 21 -14 7z"/>
<path d="M8542 4083 c2 -9 15 -18 31 -20 26 -3 27 -2 17 17 -13 25 -53 28 -48
3z"/>
<path d="M4403 4021 c0 -33 4 -58 9 -55 5 3 7 21 4 40 -6 32 7 49 16 22 3 -7
7 -3 10 9 4 16 2 20 -8 16 -8 -3 -14 1 -14 11 0 9 -4 16 -9 16 -5 0 -8 -27 -8
-59z"/>
<path d="M8230 4059 c1 -8 7 -25 15 -39 13 -22 14 -23 14 -5 0 11 -6 29 -14
39 -11 14 -15 16 -15 5z"/>
<path d="M1835 4050 c-3 -5 -1 -10 4 -10 6 0 11 5 11 10 0 6 -2 10 -4 10 -3 0
-8 -4 -11 -10z"/>
<path d="M8179 4042 c5 -10 18 -25 27 -33 20 -16 74 -98 74 -112 0 -5 -8 -3
-17 4 -15 12 -16 12 -8 -1 4 -8 15 -24 24 -35 16 -19 16 -19 -12 -1 l-29 18 7
-24 c4 -12 14 -33 22 -46 14 -23 14 -23 -9 -11 -22 11 -22 11 -7 -7 9 -10 27
-41 40 -67 13 -27 32 -63 41 -80 9 -18 17 -40 18 -49 0 -9 5 -20 10 -23 6 -3
10 -17 10 -30 0 -18 -4 -23 -15 -19 -15 6 -16 0 -19 -71 -1 -25 -15 -47 -25
-40 -5 2 -8 -14 -7 -36 0 -22 -4 -43 -10 -47 -7 -4 -14 -61 -18 -136 -4 -71
-11 -136 -16 -145 -13 -27 -28 -84 -35 -133 -3 -26 -12 -51 -18 -55 -7 -5 -13
-15 -13 -23 -4 -37 -16 -85 -24 -95 -4 -5 -13 -30 -20 -55 -6 -25 -18 -58 -25
-75 -25 -55 -45 -108 -43 -111 2 -1 14 -4 27 -6 19 -2 28 5 44 32 11 19 23 46
27 60 3 14 13 25 21 25 8 0 31 17 52 38 37 37 38 41 32 90 -6 58 7 93 26 67 8
-11 9 -2 6 38 -2 28 0 52 4 52 5 0 9 7 9 15 0 8 5 15 11 15 8 0 10 19 7 63 -3
34 -3 52 -1 39 7 -34 23 -16 24 26 1 33 2 34 9 12 4 -14 8 -19 9 -12 1 6 6 12
12 12 6 0 9 -10 6 -22 -3 -13 -1 -41 3 -63 7 -29 8 -7 6 80 -1 66 1 131 5 145
6 22 7 20 14 -18 4 -23 10 -40 13 -37 10 10 11 50 2 90 -5 22 -11 63 -13 90
-2 28 -6 55 -8 60 -2 6 1 12 6 15 6 3 12 -25 16 -70 6 -86 32 -166 44 -137 4
9 5 31 3 47 -5 33 5 39 22 13 9 -14 10 -9 4 22 -10 56 -7 109 5 113 16 5 13
23 -6 46 -17 20 -17 20 0 7 14 -11 17 -11 17 2 0 9 -5 19 -10 22 -8 5 -7 11 1
21 11 13 8 26 -17 88 -5 14 -4 17 4 12 7 -4 12 -2 12 4 0 7 -8 14 -19 17 -10
2 -24 17 -31 31 -10 24 -13 25 -22 9 -6 -12 -5 -32 6 -65 20 -63 49 -223 41
-230 -9 -9 -25 19 -25 44 0 26 -35 145 -55 189 -8 17 -32 87 -54 155 -54 169
-81 243 -92 255 -12 12 -11 -2 2 -26 10 -19 9 -20 -13 -5 -13 8 -36 31 -52 51
-31 37 -53 47 -37 17z m204 -711 c-2 -20 -10 -56 -16 -79 -10 -37 -13 -40 -17
-20 -3 12 0 39 7 58 6 19 12 51 13 70 0 25 3 31 9 21 5 -8 7 -30 4 -50z m-52
-172 c-6 -24 -9 -28 -10 -12 -1 24 9 56 16 50 2 -3 0 -20 -6 -38z"/>
<path d="M2148 4043 c6 -2 18 -2 25 0 6 3 1 5 -13 5 -14 0 -19 -2 -12 -5z"/>
<path d="M2250 4018 c23 -22 70 -33 70 -17 0 10 -59 39 -78 39 -12 0 -9 -6 8
-22z"/>
<path d="M2326 4013 c5 -25 3 -32 -11 -35 -15 -2 -10 -10 21 -40 21 -21 47
-38 57 -38 10 0 15 -4 12 -10 -3 -5 -3 -10 2 -10 4 0 14 -13 21 -30 14 -32 60
-46 48 -14 -4 11 -1 14 12 10 22 -7 38 3 46 32 5 14 3 22 -4 22 -7 0 -9 8 -5
20 5 16 0 22 -22 30 -15 6 -35 13 -43 17 -8 3 -19 5 -24 4 -4 -1 -14 4 -22 10
-11 9 -14 9 -14 0 0 -7 -4 -9 -10 -6 -5 3 -10 15 -10 26 0 12 -7 19 -18 19
-10 0 -23 5 -30 12 -10 10 -11 6 -6 -19z m62 -71 c2 -7 -2 -10 -12 -6 -9 3
-16 11 -16 16 0 13 23 5 28 -10z m62 1 c0 -5 -4 -15 -10 -23 -11 -18 -25 -7
-17 15 6 15 27 21 27 8z m38 -17 c3 -12 -1 -17 -10 -14 -7 3 -15 13 -16 22 -3
12 1 17 10 14 7 -3 15 -13 16 -22z"/>
<path d="M5777 4002 c-19 -20 -23 -37 -7 -27 10 6 33 45 27 45 -2 0 -11 -8
-20 -18z"/>
<path d="M1850 3990 c-8 -5 -12 -11 -10 -14 3 -2 14 2 24 10 22 15 10 19 -14
4z"/>
<path d="M1885 3975 c-14 -13 -25 -29 -25 -35 0 -15 59 20 71 43 15 27 -17 22
-46 -8z"/>
<path d="M2165 3990 c-3 -5 1 -10 10 -10 9 0 13 5 10 10 -3 6 -8 10 -10 10 -2
0 -7 -4 -10 -10z"/>
<path d="M1720 3980 c0 -5 5 -10 10 -10 6 0 10 5 10 10 0 6 -4 10 -10 10 -5 0
-10 -4 -10 -10z"/>
<path d="M2210 3970 c0 -5 8 -10 18 -10 10 0 22 -4 28 -9 5 -4 21 -11 36 -15
22 -5 26 -3 22 9 -4 8 -17 17 -30 20 -13 3 -35 7 -49 10 -14 3 -25 1 -25 -5z"/>
<path d="M3766 3963 c-6 -14 -5 -15 5 -6 7 7 10 15 7 18 -3 3 -9 -2 -12 -12z"/>
<path d="M5778 3951 c-28 -24 -66 -100 -74 -146 -4 -21 -68 -161 -81 -176 -12
-14 -12 -18 -1 -21 10 -4 10 -10 0 -32 -6 -15 -12 -37 -12 -50 0 -13 -7 -40
-16 -61 -8 -20 -13 -42 -11 -48 5 -16 37 46 37 71 0 18 11 47 71 179 10 23 23
44 29 48 20 12 69 122 64 142 -3 12 6 43 20 72 30 58 22 64 -26 22z"/>
<path d="M8515 3970 c3 -5 11 -10 16 -10 6 0 7 5 4 10 -3 6 -11 10 -16 10 -6
0 -7 -4 -4 -10z"/>
<path d="M3378 3953 c-10 -2 -18 -8 -19 -11 -4 -40 -10 -76 -14 -80 -2 -3 -11
1 -20 8 -23 19 -31 3 -10 -20 13 -14 22 -17 30 -10 9 8 14 4 19 -12 9 -35 7
-41 -9 -34 -12 4 -13 2 -2 -14 14 -23 32 -27 24 -6 -3 8 -1 17 6 19 9 3 9 8 0
18 -17 18 -16 29 3 29 9 0 14 6 12 12 -3 7 1 23 7 35 12 23 9 74 -4 72 -3 -1
-14 -3 -23 -6z m14 -55 c-15 -15 -26 -4 -18 18 5 13 9 15 18 6 9 -9 9 -15 0
-24z"/>
<path d="M3165 3939 c-33 -5 -75 -9 -92 -9 -18 1 -39 1 -45 1 -54 0 -141 -10
-178 -21 -46 -14 -81 -34 -40 -23 17 4 21 2 18 -8 -7 -22 -45 -23 -57 -1 -6
11 -7 23 -3 27 4 5 1 5 -6 1 -7 -4 -14 -1 -18 7 -3 9 -14 12 -30 9 -27 -5 -28
-6 -13 -33 7 -14 7 -24 0 -33 -6 -7 -9 -33 -8 -58 l2 -47 22 21 c12 12 20 25
17 29 -2 5 1 18 8 29 11 18 10 23 -6 36 -14 10 -17 17 -10 24 15 15 37 -13 37
-45 0 -25 11 -33 22 -15 3 6 15 10 27 10 17 0 18 -2 8 -15 -7 -8 -18 -14 -24
-13 -6 2 -24 -7 -39 -18 -25 -20 -26 -22 -7 -27 11 -3 20 -1 20 5 0 5 4 7 9 4
5 -3 7 -16 3 -28 -3 -13 -7 -17 -10 -10 -3 10 -7 10 -18 1 -23 -19 -16 -29 22
-29 32 0 34 -1 20 -16 -18 -17 -22 -49 -6 -39 6 4 17 2 25 -5 10 -9 16 -7 23
6 8 15 10 13 15 -12 15 -76 21 -133 19 -179 -1 -32 1 -45 7 -36 5 7 13 11 19
7 14 -8 18 55 8 139 -12 98 -13 160 -3 182 8 18 6 27 -6 41 -13 14 -14 21 -4
31 9 9 9 14 -2 21 -20 12 0 35 33 38 22 1 26 -2 26 -26 0 -21 -2 -24 -10 -12
-5 8 -10 11 -10 5 0 -17 17 -38 27 -32 5 3 8 -8 5 -26 -4 -30 -3 -31 10 -13
13 17 15 17 21 3 4 -10 13 -14 22 -11 8 3 15 1 15 -5 0 -6 -7 -11 -15 -11 -14
0 -32 -43 -27 -68 2 -7 -3 -15 -10 -17 -10 -4 -14 -33 -15 -108 l-2 -102 14
50 c7 27 11 53 8 57 -2 5 0 8 5 8 16 0 21 -39 6 -51 -8 -7 -12 -20 -8 -31 3
-10 0 -25 -6 -33 -8 -10 -9 -15 -2 -15 7 0 6 -12 -3 -34 -9 -21 -11 -37 -5
-41 5 -3 14 13 20 36 15 53 21 45 22 -28 0 -33 3 -50 7 -40 6 18 8 18 21 2 12
-15 12 -18 -3 -26 -9 -6 -17 -19 -17 -31 0 -19 2 -18 23 8 24 31 27 43 15 60
-5 6 -7 20 -7 30 4 38 -1 65 -11 59 -5 -3 -10 1 -10 9 0 9 4 16 9 16 5 0 7 10
3 22 -4 16 -2 19 9 14 8 -4 5 1 -6 11 -23 21 -34 93 -11 73 22 -18 25 1 8 52
-15 48 -32 55 -32 15 0 -18 -2 -19 -10 -7 -5 9 -5 19 0 24 4 4 6 15 3 23 -4
11 -1 12 21 2 16 -7 26 -20 26 -33 0 -15 3 -17 12 -8 9 9 9 15 0 24 -16 16
-15 38 2 38 15 0 29 38 20 52 -4 5 -12 7 -20 4 -8 -3 -14 -2 -14 3 0 18 14 18
48 -1 21 -11 31 -14 25 -7 -17 17 -16 39 0 39 14 0 37 40 37 65 0 8 6 15 13
15 6 0 22 3 35 6 26 7 31 -16 7 -36 -9 -7 -15 -20 -14 -29 4 -44 -1 -53 -25
-49 -24 5 -24 4 -9 -19 8 -12 19 -23 23 -23 4 0 10 -7 13 -14 4 -10 1 -13 -9
-9 -9 3 -14 -1 -14 -13 -1 -17 -3 -17 -20 4 -22 27 -32 16 -21 -24 6 -21 4
-33 -8 -44 -9 -8 -17 -31 -18 -50 -2 -74 -7 -111 -15 -116 -14 -9 -9 -35 11
-60 23 -30 36 -16 19 20 -9 21 -8 31 2 50 7 14 10 32 7 40 -4 9 -2 16 4 16 6
0 9 7 5 15 -3 8 -2 15 3 15 5 0 12 17 17 38 4 20 8 40 9 45 2 4 3 10 4 13 0 4
12 -1 26 -10 23 -15 29 -14 26 7 -2 12 17 8 26 -5 4 -7 6 -21 4 -32 -1 -11 2
-16 8 -12 6 4 11 16 11 27 0 10 5 19 10 19 15 0 12 26 -5 40 -11 9 -12 17 -6
23 7 7 7 17 0 29 -6 11 -8 22 -5 25 3 3 8 -2 12 -11 3 -9 12 -16 19 -16 7 0
20 -10 28 -22 l16 -23 -6 23 c-3 12 -9 25 -14 28 -5 3 -9 13 -9 23 0 26 -30
82 -41 76 -13 -9 9 44 26 61 8 9 15 20 15 25 0 11 -71 10 -155 -2z m-130 -106
c-3 -8 -5 -19 -5 -24 0 -5 -4 -9 -10 -9 -5 0 -10 11 -10 23 0 15 6 24 15 24
10 0 14 -6 10 -14z m-221 -88 c-4 -8 -11 -15 -16 -15 -6 0 -5 6 2 15 7 8 14
15 16 15 2 0 1 -7 -2 -15z m183 -137 c-3 -8 -6 -5 -6 6 -1 11 2 17 5 13 3 -3
4 -12 1 -19z m43 -209 c0 -5 -4 -9 -10 -9 -5 0 -10 7 -10 16 0 8 5 12 10 9 6
-3 10 -10 10 -16z"/>
<path d="M3530 3946 c0 -4 7 -14 15 -22 8 -9 15 -11 15 -6 0 5 -7 15 -15 22
-8 7 -15 9 -15 6z"/>
<path d="M3685 3930 c-13 -15 -15 -24 -8 -31 16 -16 31 -3 31 26 0 30 0 30
-23 5z"/>
<path d="M4390 3934 c0 -8 5 -12 10 -9 6 4 8 11 5 16 -9 14 -15 11 -15 -7z"/>
<path d="M1888 3927 c-13 -4 -18 -11 -13 -15 6 -4 11 -14 13 -22 2 -8 8 -16
13 -18 5 -2 9 -8 9 -12 0 -5 14 -31 30 -57 17 -26 30 -51 30 -55 0 -4 -17 -8
-37 -8 l-38 -1 28 -20 c15 -11 27 -26 27 -33 0 -7 5 -17 12 -24 11 -11 38 -78
38 -94 0 -5 -6 -8 -14 -8 -9 0 -12 -7 -9 -20 4 -16 2 -19 -11 -14 -9 3 -16 1
-16 -5 0 -6 6 -11 13 -11 9 0 9 -2 0 -8 -15 -9 -29 -82 -15 -82 5 0 13 -7 16
-16 5 -13 1 -15 -21 -11 l-27 5 25 -19 c20 -16 21 -19 6 -19 -10 0 -15 -5 -12
-10 4 -6 1 -17 -5 -25 -7 -9 -9 -22 -5 -32 5 -10 8 -20 8 -23 -10 -92 -11
-140 -3 -145 6 -4 13 1 16 9 3 9 13 16 21 16 11 0 10 -5 -4 -25 -10 -13 -24
-23 -32 -22 -20 3 -23 -51 -4 -62 11 -6 12 -10 4 -15 -6 -4 -11 -2 -11 3 0 6
-4 11 -10 11 -5 0 -10 -6 -10 -14 0 -8 -6 -17 -12 -20 -7 -3 -5 -4 6 -3 12 1
20 -5 22 -17 1 -10 6 -22 11 -25 12 -9 10 -46 -2 -44 -6 2 -10 14 -10 28 -1
31 -10 39 -32 31 -14 -6 -15 -9 -4 -15 10 -7 10 -10 1 -13 -9 -3 -8 -8 4 -20
15 -16 15 -18 -3 -30 -25 -18 -22 -45 7 -75 27 -27 32 -28 32 -7 0 12 4 14 13
7 7 -6 30 -5 62 3 28 7 41 13 30 14 -12 1 -5 6 18 12 37 10 38 11 20 30 -18
20 -17 20 5 14 16 -5 22 -3 22 7 0 9 6 18 13 21 6 3 2 3 -10 0 -28 -7 -28 -3
-5 24 17 19 19 19 40 3 21 -15 22 -19 10 -42 -8 -15 -19 -24 -28 -21 -8 3 -12
1 -7 -3 4 -5 0 -17 -10 -27 -9 -10 -11 -18 -5 -18 6 0 9 -7 6 -15 -5 -12 2
-14 41 -10 55 5 64 10 47 27 -7 7 -12 21 -12 33 0 17 3 15 18 -10 25 -41 43
-53 72 -50 14 1 37 -6 52 -17 15 -10 30 -18 35 -17 15 2 53 -13 53 -22 0 -5 7
-9 16 -9 13 0 14 3 5 14 -8 10 -9 16 -1 21 12 8 32 -3 25 -15 -7 -11 42 -42
63 -39 44 4 53 -1 46 -23 -6 -22 -6 -22 13 -5 11 9 26 17 34 17 9 0 5 -7 -10
-19 -13 -10 -25 -27 -26 -37 0 -11 -4 -25 -9 -32 -4 -6 -3 -12 3 -12 6 0 7 -8
4 -17 -6 -15 -5 -16 9 -3 8 8 13 26 12 42 -3 20 0 26 11 22 22 -9 38 5 25 21
-13 16 1 28 24 19 12 -5 15 -2 10 10 -7 19 12 22 20 4 3 -9 13 -3 30 16 14 17
23 34 20 38 -3 4 2 11 11 14 11 4 14 13 9 28 -6 19 -5 19 10 7 14 -12 15 -16
3 -30 -23 -27 -31 -54 -28 -99 2 -23 -3 -49 -9 -57 -9 -11 -9 -15 -1 -15 6 0
11 5 11 10 0 24 17 6 31 -32 20 -56 76 -95 146 -104 l51 -6 -1 35 c-1 23 -5
33 -13 30 -8 -3 -11 2 -7 15 5 22 52 39 63 23 10 -17 100 13 100 33 0 15 -38
38 -50 31 -6 -3 -7 1 -4 10 5 12 -1 15 -30 13 -20 -2 -34 -7 -32 -13 2 -5 11
-9 20 -9 25 3 19 -15 -10 -26 -34 -13 -34 -13 -27 8 5 14 3 13 -10 -3 -15 -19
-16 -19 -23 -2 -4 10 -13 16 -21 13 -9 -4 -11 -2 -7 6 5 7 0 9 -14 6 -12 -4
-22 -2 -22 3 0 5 5 9 11 9 5 0 7 5 3 11 -3 6 0 15 7 20 12 7 12 12 1 29 -7 12
-10 30 -7 40 4 13 0 20 -15 25 -11 3 -20 11 -20 17 0 5 6 8 14 5 9 -4 16 3 20
16 9 33 7 44 -5 27 -9 -12 -10 -11 -6 7 3 13 2 25 -3 28 -10 6 -35 -24 -35
-43 0 -19 -15 -25 -34 -13 -13 8 -6 22 37 66 9 10 9 16 1 21 -6 3 -15 0 -20
-7 -5 -8 -9 -9 -9 -3 0 14 25 36 32 29 2 -3 5 2 5 10 0 8 -4 15 -9 15 -12 0
-4 35 11 54 8 9 12 19 9 21 -3 3 -17 -13 -32 -35 -37 -56 -59 -53 -75 13 -32
125 -74 179 -169 216 -53 20 -71 23 -124 16 -35 -4 -75 -7 -90 -6 -17 0 -27
-5 -25 -12 1 -7 -6 -11 -16 -9 -14 2 -16 -2 -12 -21 5 -19 2 -25 -14 -30 -12
-3 -19 -1 -16 3 3 5 -4 12 -16 15 -12 4 -18 12 -15 21 3 9 -4 16 -19 20 -31 8
-32 16 -2 29 12 6 22 17 21 25 -1 9 10 24 24 34 24 19 24 19 17 -5 -6 -20 -5
-22 6 -11 7 6 21 12 30 12 10 0 25 7 34 16 10 10 24 14 40 10 35 -9 31 0 -7
20 -41 22 -20 30 24 11 41 -18 98 -29 98 -19 0 5 -5 13 -12 20 -9 9 -8 12 4
12 8 0 21 -7 28 -15 7 -9 15 -13 18 -11 2 3 -10 18 -27 34 -28 25 -30 32 -22
54 8 21 6 30 -10 47 -11 11 -31 24 -45 27 -20 5 -24 12 -22 32 4 32 28 42 28
12 0 -13 4 -18 11 -14 6 3 8 17 5 30 -5 17 -3 22 8 18 7 -3 16 2 20 11 3 9 0
18 -9 21 -8 4 -15 10 -15 15 0 4 7 6 15 3 8 -4 15 -1 15 6 0 6 4 9 10 5 5 -3
7 -12 4 -19 -3 -8 -1 -17 4 -20 16 -10 22 21 10 55 -10 30 -1 48 25 49 12 0 8
-18 -5 -22 -6 -2 -8 -10 -4 -17 6 -9 13 -6 27 10 19 22 26 59 10 59 -4 0 -13
15 -19 33 l-10 32 -1 -29 c-1 -21 -5 -27 -16 -22 -11 4 -17 -3 -22 -24 -3 -16
-10 -27 -15 -24 -5 4 -7 18 -3 33 l7 26 -19 -22 c-19 -21 -21 -21 -37 -5 -17
16 -18 16 -12 -4 5 -15 2 -24 -10 -28 -15 -6 -15 -8 1 -32 9 -14 14 -31 12
-37 -3 -7 -10 2 -17 18 -11 28 -13 28 -20 10 -5 -11 -9 -14 -9 -7 -1 7 -6 10
-12 6 -6 -3 -9 -15 -6 -25 8 -29 -7 -31 -27 -3 -11 13 -23 24 -29 24 -5 0 -5
-6 2 -14 9 -10 8 -15 -4 -20 -19 -7 -19 -25 1 -47 15 -17 14 -17 -28 -4 -23 7
-50 16 -59 20 -10 3 -20 2 -24 -4 -3 -6 2 -11 13 -11 11 0 25 -7 32 -15 10
-12 9 -15 -6 -15 -16 0 -15 -2 5 -21 24 -23 21 -40 -4 -19 -8 7 -15 10 -15 6
0 -3 -16 1 -36 9 -49 20 -54 19 -21 -8 15 -12 30 -35 33 -52 5 -27 4 -28 -13
-14 -30 26 -43 31 -43 16 0 -7 11 -19 25 -25 14 -6 25 -17 25 -23 0 -8 -4 -8
-12 -2 -15 12 -48 13 -48 2 0 -14 18 -19 23 -7 3 9 10 7 21 -7 20 -26 21 -41
1 -21 -16 15 -45 12 -45 -6 0 -5 10 -18 23 -29 13 -11 17 -18 9 -19 -19 0 -43
26 -45 50 -1 11 -4 20 -7 20 -3 0 -16 10 -30 21 -16 14 -19 19 -7 15 16 -5 21
7 20 51 -1 7 3 10 8 7 5 -3 9 0 9 7 0 6 -8 9 -18 7 -12 -4 -18 1 -19 13 -2 27
9 24 62 -17 26 -19 49 -33 52 -30 3 2 -5 9 -16 15 -11 7 -28 25 -36 41 -13 26
-13 29 3 33 16 4 16 5 0 6 -10 0 -18 6 -18 12 0 6 -7 9 -15 5 -33 -12 -12 10
25 28 47 22 40 46 -7 28 -33 -12 -103 -25 -103 -18 0 2 25 12 54 20 30 9 58
21 61 26 3 5 -8 5 -25 -2 -17 -5 -33 -8 -36 -5 -3 3 21 13 53 22 64 20 114 54
58 40 -16 -4 -37 -8 -45 -9 -8 -1 -24 -6 -35 -13 -20 -11 -145 -29 -145 -20 0
6 146 78 156 76 21 -4 35 2 29 11 -3 6 4 15 17 20 18 8 13 9 -22 4 -25 -4 -49
-9 -55 -12 -5 -4 -18 -8 -29 -9 -10 -2 -36 -17 -58 -34 -21 -17 -37 -25 -36
-18 2 8 10 19 18 26 13 11 12 12 -5 13 -12 0 1 11 35 28 30 15 57 30 58 35 2
4 13 8 25 8 16 1 18 2 5 6 -10 2 -15 10 -11 19 4 11 -4 14 -33 15 l-39 1 33 9
c52 15 37 22 -35 16 -68 -6 -68 -6 -28 8 l40 14 -68 -2 c-37 -1 -77 -6 -89
-10z m516 -362 c-4 -8 -8 -15 -10 -15 -2 0 -4 7 -4 15 0 8 4 15 10 15 5 0 7
-7 4 -15z m-88 -60 c5 -26 -10 -42 -22 -24 -4 7 -8 29 -9 51 -2 36 -1 37 12
18 8 -11 16 -31 19 -45z m31 43 c-3 -8 -6 -5 -6 6 -1 11 2 17 5 13 3 -3 4 -12
1 -19z m55 -48 c6 0 8 7 4 15 -3 8 -1 15 3 15 5 0 12 -7 15 -16 3 -8 11 -12
17 -8 8 4 9 3 5 -4 -4 -6 -14 -8 -23 -5 -11 4 -14 3 -9 -5 9 -15 -16 -16 -31
-1 -15 15 -28 -8 -14 -25 7 -8 10 -20 9 -27 -2 -7 11 -18 29 -24 43 -14 53
-26 20 -23 -15 1 -27 5 -27 8 0 3 -15 11 -32 18 -27 10 -30 14 -18 23 11 8 12
12 3 16 -15 5 -18 33 -4 33 5 0 12 15 16 33 l7 32 10 -27 c5 -16 14 -28 20
-28z m-144 -19 c4 -28 -13 -20 -21 9 -3 14 -1 20 6 17 7 -2 14 -14 15 -26z
m68 -36 c3 -8 -1 -21 -9 -29 -12 -13 -14 -11 -15 15 -1 30 15 40 24 14z m-36
-86 c0 -4 -6 -11 -12 -15 -7 -4 -10 -4 -6 0 4 5 -4 19 -18 33 -33 33 -30 38 6
11 17 -12 30 -25 30 -29z m-5 41 c3 -5 2 -10 -4 -10 -5 0 -13 5 -16 10 -3 6
-2 10 4 10 5 0 13 -4 16 -10z m-175 -52 c0 -6 -7 -7 -16 -4 -9 3 -18 6 -20 6
-3 0 -3 4 1 10 7 11 35 2 35 -12z m-5 -44 c14 -21 14 -24 0 -24 -8 0 -15 6
-15 14 0 8 -7 16 -15 20 -8 3 -15 10 -15 15 0 17 28 1 45 -25z m90 26 c3 -6
-1 -7 -9 -4 -18 7 -21 14 -7 14 6 0 13 -4 16 -10z m-22 -34 c7 -17 -18 -41
-53 -51 -22 -7 -23 -6 -11 9 7 9 22 16 32 16 10 0 21 5 24 10 3 6 1 10 -4 10
-6 0 -11 5 -11 10 0 15 17 12 23 -4z m-93 -31 c0 -8 -4 -15 -10 -15 -5 0 -10
7 -10 15 0 8 5 15 10 15 6 0 10 -7 10 -15z m-25 -35 c4 -6 -5 -20 -19 -31 -14
-11 -26 -28 -26 -37 0 -12 -3 -13 -12 -4 -8 8 -5 20 13 47 25 37 34 42 44 25z
m79 -29 c3 -5 -3 -11 -13 -14 -14 -3 -18 -1 -14 9 6 16 19 18 27 5z m11 -49
c-15 -16 -16 -16 -13 3 4 23 21 39 27 24 2 -6 -4 -18 -14 -27z m308 -4 c-6
-33 -6 -33 13 -12 24 27 44 20 44 -15 0 -37 19 -91 33 -91 26 0 47 34 47 77 0
51 17 57 43 14 21 -35 22 -60 3 -67 -14 -5 -15 -48 -3 -61 14 -14 -43 -43 -85
-43 -42 0 -143 40 -143 57 -1 4 -7 19 -14 32 -28 50 -10 126 31 134 13 2 26 5
30 6 4 0 5 -14 1 -31z m-337 6 c-4 -9 -1 -23 5 -30 9 -11 8 -14 -5 -14 -9 0
-16 -7 -16 -16 0 -8 -4 -12 -10 -9 -14 9 -6 65 11 76 20 12 22 11 15 -7z m68
-8 c-21 -15 -30 -14 -19 3 3 6 14 11 23 11 13 0 13 -2 -4 -14z m141 -5 c3 -10
5 -23 3 -27 -1 -5 1 -25 5 -46 18 -88 154 -163 259 -141 26 5 48 6 48 1 0 -4
7 -8 16 -8 8 0 13 -4 9 -9 -3 -5 -1 -12 4 -16 6 -3 2 -14 -9 -25 -11 -11 -20
-27 -20 -35 0 -8 -4 -15 -10 -15 -5 0 -10 -7 -10 -15 0 -8 -8 -15 -19 -15 -10
0 -30 -9 -44 -20 -21 -17 -26 -18 -31 -5 -3 9 0 15 10 15 8 0 13 4 9 10 -4 6
-14 5 -29 -2 -19 -8 -32 -7 -57 6 -30 15 -35 15 -45 1 -14 -19 -24 -19 -24 0
0 8 12 18 26 21 23 6 24 8 9 17 -12 6 -25 5 -41 -4 -22 -11 -27 -10 -47 11
-12 12 -16 19 -9 15 33 -18 91 27 60 47 -18 11 -48 10 -48 -2 0 -5 12 -10 28
-10 l27 0 -28 -15 c-20 -10 -35 -12 -52 -5 -30 11 -34 24 -5 15 12 -4 20 -2
20 6 0 21 -41 79 -56 79 -8 0 -14 7 -14 16 0 8 -4 13 -10 9 -5 -3 -18 12 -30
35 -11 22 -23 40 -26 40 -2 0 0 -10 7 -21 8 -16 8 -23 -1 -29 -8 -5 -1 -15 19
-33 24 -20 27 -26 15 -31 -9 -3 -25 -1 -36 5 -16 8 -23 8 -30 -2 -7 -11 -11
-11 -15 -2 -2 7 -4 15 -3 19 1 4 -3 10 -10 14 -13 8 4 60 20 60 5 0 10 7 10
15 0 8 7 15 15 15 13 0 14 4 4 21 -10 20 -9 21 10 16 12 -3 24 0 29 8 4 7 23
18 42 23 49 14 48 14 55 -7z m-257 -27 c3 -15 1 -17 -9 -6 -19 18 -42 15 -57
-8 -13 -21 -32 -27 -32 -10 0 6 6 10 13 10 7 0 17 8 24 18 15 25 57 22 61 -4z
m-2 -47 c20 7 17 -4 -6 -27 -25 -25 -27 -25 -24 3 4 39 5 42 10 30 3 -7 12 -9
20 -6z m-110 -73 c-9 -9 -20 -14 -23 -10 -4 3 2 13 13 20 25 18 31 12 10 -10z
m68 1 c-4 -8 -10 -15 -15 -15 -4 0 -6 7 -3 15 4 8 10 15 15 15 4 0 6 -7 3 -15z
m-9 -35 c-3 -5 -15 -10 -25 -10 -10 0 -22 5 -25 10 -4 6 7 10 25 10 18 0 29
-4 25 -10z m289 -39 c-2 -3 -12 3 -22 13 -16 17 -16 18 5 5 12 -7 20 -15 17
-18z m-319 9 c-3 -5 -14 -10 -23 -10 -15 0 -15 2 -2 10 20 13 33 13 25 0z
m233 -10 c14 0 15 -2 3 -9 -12 -8 -12 -12 -2 -25 11 -13 11 -16 -2 -16 -21 0
-41 37 -32 58 5 12 9 13 12 5 3 -7 12 -13 21 -13z m62 -10 c8 -5 11 -10 5 -10
-5 0 -17 5 -25 10 -8 5 -10 10 -5 10 6 0 17 -5 25 -10z m395 -110 c-3 -5 -14
-8 -25 -7 -24 2 -18 12 9 14 12 1 19 -2 16 -7z m-68 -45 c0 -17 -31 -30 -48
-19 -8 4 -3 11 12 20 31 17 36 17 36 -1z m43 1 c0 -11 -19 -15 -25 -6 -3 5 1
10 9 10 9 0 16 -2 16 -4z"/>
<path d="M2410 2860 c0 -5 12 -10 28 -10 21 0 24 2 12 10 -20 13 -40 13 -40 0z"/>
<path d="M2464 2819 c-4 -8 1 -9 16 -4 15 5 20 4 16 -4 -8 -12 9 -13 38 -2 18
7 18 8 -5 14 -36 10 -57 8 -65 -4z"/>
<path d="M2227 3933 c-11 -11 64 -42 102 -43 29 0 32 2 21 15 -7 9 -19 14 -27
11 -19 -8 -74 5 -67 15 6 11 -19 12 -29 2z"/>
<path d="M3495 3931 c3 -5 -2 -11 -11 -13 -14 -3 -14 -6 3 -27 l20 -24 1 36
c1 21 -3 37 -9 37 -6 0 -8 -4 -4 -9z"/>
<path d="M7599 3926 c7 -8 8 -17 3 -20 -20 -12 -62 -105 -55 -122 5 -13 3 -15
-7 -9 -10 6 -12 2 -8 -18 3 -18 -1 -32 -13 -43 -15 -14 -19 -14 -20 -3 0 8 -6
-2 -13 -20 -8 -22 -15 -31 -20 -23 -4 7 -12 12 -18 12 -6 0 -3 -9 8 -21 14
-15 15 -20 4 -17 -9 2 -14 -3 -12 -11 2 -11 -4 -10 -25 4 -28 18 -28 18 -10
-2 9 -11 17 -24 17 -29 0 -5 -4 -4 -8 1 -4 6 -15 16 -25 24 -15 12 -17 12 -11
-4 6 -14 4 -16 -6 -10 -9 5 -11 4 -6 -4 4 -6 11 -9 16 -6 4 3 13 -2 20 -10 11
-13 8 -14 -19 -9 -18 4 -31 2 -31 -4 0 -5 6 -10 13 -9 34 1 47 -5 46 -20 0
-11 -3 -13 -6 -5 -2 6 -9 10 -14 6 -5 -3 -23 1 -39 10 -25 12 -30 12 -30 1 0
-8 10 -17 22 -21 19 -6 19 -7 4 -16 -9 -5 -14 -14 -11 -19 4 -5 11 -7 16 -4 5
4 9 1 9 -4 0 -6 -7 -11 -15 -11 -9 0 -12 -6 -9 -15 5 -11 11 -12 24 -5 13 7
20 6 24 -3 5 -9 7 -9 12 1 3 6 11 12 17 12 15 0 40 -38 32 -49 -2 -5 2 -14 10
-21 11 -9 15 -9 15 -1 0 6 12 -3 28 -19 26 -30 29 -31 72 -21 36 8 50 7 67 -4
26 -18 57 -20 47 -4 -4 8 3 9 25 4 17 -4 31 -3 31 2 0 4 11 9 24 9 32 2 97 34
90 45 -3 5 2 12 10 15 9 3 16 12 16 19 0 15 19 32 40 37 28 6 28 20 -1 76 -29
58 -30 74 -4 52 18 -15 18 -8 5 42 -6 21 -20 42 -30 48 -21 11 -29 -3 -10 -15
13 -8 13 -25 1 -25 -5 0 -13 9 -16 20 -10 30 -55 73 -100 94 -22 10 -51 24
-65 30 -15 8 -42 10 -67 6 -24 -3 -43 -3 -43 1 0 12 67 42 82 36 7 -2 26 2 42
11 l30 14 -35 15 c-19 8 -35 14 -36 14 -2 0 -21 6 -44 14 -51 18 -54 18 -40 1z
m-17 -113 c-6 -2 -10 -9 -6 -14 3 -5 -2 -9 -10 -9 -17 0 -21 12 -9 23 3 4 13
7 22 6 11 0 12 -2 3 -6z m136 -145 c17 -17 15 -47 -3 -55 -17 -6 -55 23 -55
43 0 22 39 31 58 12z m59 -57 c-2 -10 -1 -25 4 -33 11 -19 -51 -88 -78 -88
-37 0 -88 23 -115 52 -40 42 -34 51 8 12 29 -28 43 -34 78 -34 49 0 67 15 86
73 12 37 27 53 17 18z m63 -70 c-13 -47 -28 -68 -64 -90 -36 -23 -56 -27 -56
-11 0 5 11 12 25 16 32 8 71 54 80 94 4 17 10 28 15 25 5 -3 5 -18 0 -34z m-9
-82 c-24 -21 -49 -39 -55 -39 -6 0 5 13 24 28 19 15 41 35 49 44 8 10 17 15
20 12 4 -3 -14 -24 -38 -45z"/>
<path d="M8540 3920 c0 -5 5 -10 11 -10 5 0 7 5 4 10 -3 6 -8 10 -11 10 -2 0
-4 -4 -4 -10z"/>
<path d="M3440 3905 c0 -8 5 -15 10 -15 6 0 10 7 10 15 0 8 -4 15 -10 15 -5 0
-10 -7 -10 -15z"/>
<path d="M4405 3908 c-4 -9 -12 -16 -18 -14 -7 1 -9 1 -4 -1 4 -3 7 -12 7 -21
0 -13 4 -11 16 6 8 12 13 28 11 35 -3 8 -7 6 -12 -5z"/>
<path d="M8410 3913 c0 -3 8 -15 18 -26 9 -10 33 -51 52 -89 38 -77 82 -121
72 -73 -3 20 -1 24 12 19 9 -3 16 -3 16 1 0 14 -21 45 -31 45 -5 0 -19 9 -31
20 l-22 20 23 0 c12 0 19 4 16 10 -3 6 -14 10 -24 10 -21 0 -73 39 -53 40 7 0
10 5 7 11 -4 6 -13 8 -21 5 -8 -3 -14 -1 -14 4 0 6 -4 10 -10 10 -5 0 -10 -3
-10 -7z"/>
<path d="M2559 3909 c-7 -30 -4 -46 8 -42 8 3 13 -3 13 -16 0 -12 5 -21 11
-21 6 0 9 -7 6 -15 -4 -8 -2 -17 2 -20 5 -2 12 -21 15 -40 7 -37 20 -45 30
-19 3 8 10 13 15 10 5 -3 9 19 9 49 -1 31 2 58 6 62 12 13 6 32 -9 27 -8 -4
-15 -1 -15 5 0 6 -13 9 -32 7 -18 -2 -39 1 -45 6 -7 6 -13 9 -14 7z m81 -90
c0 -5 -4 -9 -10 -9 -5 0 -10 7 -10 16 0 8 5 12 10 9 6 -3 10 -10 10 -16z"/>
<path d="M2197 3893 c-12 -11 -8 -25 6 -20 6 2 21 0 32 -6 11 -6 31 -12 45
-13 25 -3 25 -3 -5 22 -29 23 -65 31 -78 17z"/>
<path d="M16670 3896 c0 -2 7 -7 16 -10 8 -3 12 -2 9 4 -6 10 -25 14 -25 6z"/>
<path d="M3420 3840 c-11 -22 -16 -40 -10 -40 5 0 10 5 10 10 0 15 40 12 41
-2 1 -7 0 -23 -1 -35 -1 -17 3 -20 19 -16 12 3 21 10 21 15 0 5 -4 7 -9 4 -5
-3 -8 6 -8 20 0 23 1 24 17 9 14 -12 19 -13 22 -3 10 25 3 33 -29 31 -26 -1
-33 3 -33 17 0 35 -19 31 -40 -10z"/>
<path d="M3527 3865 c3 -8 9 -12 14 -9 12 7 11 11 -5 17 -10 4 -13 1 -9 -8z"/>
<path d="M8370 3874 c0 -14 53 -96 73 -112 9 -8 13 -20 10 -28 -3 -8 6 -25 19
-37 14 -13 30 -32 36 -42 6 -11 13 -17 17 -13 8 8 -18 60 -39 77 -9 7 -13 17
-11 22 3 4 -15 34 -41 66 -60 75 -64 79 -64 67z"/>
<path d="M2357 3859 c-15 -9 -16 -12 -2 -25 8 -9 12 -20 9 -26 -4 -6 -10 -6
-17 1 -6 6 -19 11 -28 11 -10 0 -19 5 -21 12 -3 9 -13 9 -38 2 -34 -9 -54 -34
-27 -34 8 0 20 -6 26 -14 6 -7 22 -11 36 -8 15 2 25 0 25 -7 0 -7 8 -11 18 -9
9 1 23 -1 31 -6 10 -6 12 -4 7 12 -6 18 -3 20 33 17 33 -3 39 -1 34 13 -6 19
-53 72 -62 72 -3 0 -14 -5 -24 -11z"/>
<path d="M7521 3861 c-7 -5 -12 -14 -10 -20 2 -6 10 -2 17 9 14 22 13 23 -7
11z"/>
<path d="M7773 3859 c9 -5 17 -17 17 -24 0 -16 16 -20 24 -7 6 10 -30 42 -47
42 -6 0 -4 -5 6 -11z"/>
<path d="M8518 3863 c7 -3 16 -2 19 1 4 3 -2 6 -13 5 -11 0 -14 -3 -6 -6z"/>
<path d="M2208 3843 c7 -3 16 -2 19 1 4 3 -2 6 -13 5 -11 0 -14 -3 -6 -6z"/>
<path d="M6200 3822 c19 -17 32 -33 30 -36 -3 -3 -24 -6 -45 -7 -65 -3 -113
-18 -139 -44 -14 -14 -34 -25 -46 -25 -11 0 -20 -5 -20 -11 0 -6 8 -8 19 -4
30 9 32 -8 6 -41 -13 -16 -24 -23 -25 -16 0 6 5 12 12 12 6 0 9 3 6 6 -4 3
-15 1 -26 -5 -24 -13 -29 -73 -6 -64 18 7 18 -5 -1 -23 -13 -13 -18 -34 -14
-60 0 -4 -5 -11 -13 -16 -8 -6 1 -7 26 -3 36 6 38 5 27 -9 -11 -14 -11 -16 4
-16 11 0 15 -5 11 -15 -3 -10 7 -29 28 -50 37 -36 29 -35 161 -21 11 2 33 8
50 15 27 11 32 10 51 -12 l21 -25 21 27 c66 82 65 78 48 112 -11 22 -12 28 -2
20 10 -8 17 -6 30 8 19 21 12 53 -10 44 -8 -3 -14 0 -14 7 0 6 -4 9 -9 6 -5
-4 -7 3 -4 14 3 11 0 20 -6 20 -6 0 -11 7 -11 16 0 10 -5 14 -16 10 -8 -3 -12
-2 -9 4 3 6 1 10 -4 10 -6 0 -11 9 -11 21 0 11 -4 17 -10 14 -5 -3 -7 0 -5 8
3 7 -6 26 -20 41 -14 15 -25 34 -25 42 0 8 -4 12 -10 9 -5 -3 -10 -1 -10 4 0
6 6 11 12 11 23 0 -26 39 -57 45 l-30 7 35 -30z m-32 -191 c6 -40 -39 -70 -52
-35 -8 20 21 67 37 61 7 -2 13 -14 15 -26z m-55 -89 c19 -23 66 -43 90 -37 12
3 31 19 42 35 26 39 39 39 17 1 -18 -32 -51 -55 -95 -65 -24 -6 -34 -1 -63 28
-34 34 -42 64 -27 102 5 15 9 11 16 -16 5 -19 14 -41 20 -48z m207 -2 c-6 -11
-13 -20 -16 -20 -2 0 0 9 6 20 6 11 13 20 16 20 2 0 0 -9 -6 -20z m-320 -14
c0 -3 -4 -8 -10 -11 -5 -3 -10 -1 -10 4 0 6 5 11 10 11 6 0 10 -2 10 -4z m82
-127 c-10 -4 -19 -1 -21 5 -2 6 -15 31 -29 56 l-26 45 46 -50 c38 -41 43 -51
30 -56z m58 37 c35 -15 35 -15 7 -16 -18 0 -37 10 -52 26 -29 31 -33 45 -7 21
10 -9 33 -23 52 -31z m140 39 c0 -2 -10 -10 -22 -16 -21 -11 -22 -11 -9 4 13
16 31 23 31 12z"/>
<path d="M7393 3829 c-7 -9 -9 -20 -3 -29 12 -19 22 -7 18 21 -2 19 -5 20 -15
8z"/>
<path d="M7440 3818 c0 -19 -2 -20 -11 -8 -8 11 -9 9 -3 -10 3 -14 9 -27 11
-30 8 -8 31 30 29 48 -4 26 -26 26 -26 0z"/>
<path d="M7493 3814 c3 -4 2 -14 -3 -23 -10 -20 3 -50 14 -32 4 6 2 11 -4 11
-7 0 -8 6 0 19 13 25 13 31 -2 31 -6 0 -8 -3 -5 -6z"/>
<path d="M3532 3790 c-15 -24 -16 -40 -2 -40 6 0 10 6 10 14 0 8 6 16 13 19 8
3 9 8 2 16 -8 7 -14 5 -23 -9z"/>
<path d="M3610 3796 c0 -8 4 -17 9 -20 5 -4 7 3 4 14 -6 23 -13 26 -13 6z"/>
<path d="M2920 3780 c0 -11 5 -20 10 -20 6 0 10 9 10 20 0 11 -4 20 -10 20 -5
0 -10 -9 -10 -20z"/>
<path d="M3680 3792 c0 -7 -7 -12 -15 -12 -21 0 -19 -16 5 -40 27 -27 29 -26
25 16 -3 33 -15 62 -15 36z"/>
<path d="M3587 3774 c-12 -12 -8 -34 7 -34 15 0 29 -27 21 -40 -3 -5 0 -12 6
-16 8 -5 10 1 7 20 -7 35 8 34 17 -1 7 -26 8 -26 15 -8 7 19 7 19 15 -5 5 -15
4 -25 -4 -28 -6 -2 -11 -11 -11 -20 0 -12 5 -10 17 8 9 14 19 27 22 30 14 12
30 50 22 50 -5 0 -11 -6 -14 -12 -5 -16 -77 15 -77 34 0 6 -3 8 -7 5 -3 -4
-11 0 -17 9 -6 8 -15 12 -19 8z"/>
<path d="M4341 3753 c-10 -26 -10 -27 4 -9 8 11 15 23 15 28 0 15 -7 8 -19
-19z"/>
<path d="M16882 3764 c16 -18 78 -59 78 -51 0 2 -21 19 -47 37 -27 19 -40 25
-31 14z"/>
<path d="M3403 3755 c-18 -20 -17 -41 0 -26 16 13 28 5 20 -15 -3 -8 0 -14 6
-14 6 0 8 -7 5 -15 -5 -11 -2 -13 11 -9 12 5 15 13 9 33 -4 14 -7 34 -8 44 0
20 -26 22 -43 2z"/>
<path d="M4378 3723 c-16 -35 -22 -71 -23 -134 -1 -47 -5 -91 -9 -97 -4 -7 -3
-12 2 -12 14 0 32 56 32 95 0 18 6 51 14 73 14 37 20 122 9 122 -2 0 -14 -21
-25 -47z"/>
<path d="M2712 3748 c-7 -7 -12 -21 -12 -32 0 -17 -2 -18 -10 -6 -7 12 -10 8
-10 -14 0 -24 -2 -27 -15 -16 -12 10 -15 10 -15 -4 0 -9 5 -16 11 -16 5 0 7
-4 4 -10 -3 -5 -3 -15 1 -21 9 -15 24 9 24 40 0 19 3 21 14 12 11 -9 15 -6 18
16 3 16 9 36 13 46 8 20 -5 23 -23 5z"/>
<path d="M2239 3733 c-12 -15 -12 -16 4 -10 13 5 24 0 37 -15 10 -13 22 -19
26 -15 5 4 2 12 -6 17 -8 6 -11 10 -6 10 13 0 -15 30 -29 30 -7 0 -19 -8 -26
-17z"/>
<path d="M2913 3735 c-7 -8 -9 -16 -4 -19 5 -3 12 1 15 10 8 22 4 25 -11 9z"/>
<path d="M3500 3735 c0 -9 5 -15 11 -13 6 2 11 8 11 13 0 5 -5 11 -11 13 -6 2
-11 -4 -11 -13z"/>
<path d="M3557 3729 c-6 -24 1 -51 13 -44 4 3 10 -2 14 -10 3 -8 10 -15 15
-15 11 0 -2 39 -25 73 -11 17 -12 16 -17 -4z"/>
<path d="M2055 3730 c-8 -13 15 -13 35 0 12 8 11 10 -7 10 -12 0 -25 -4 -28
-10z"/>
<path d="M3733 3690 c-6 -16 -8 -32 -4 -34 10 -7 37 12 29 20 -4 4 -3 15 3 25
7 14 6 19 -3 19 -8 0 -19 -13 -25 -30z"/>
<path d="M8873 3708 c3 -7 13 -36 22 -64 17 -55 75 -124 75 -89 0 10 -3 15 -7
12 -3 -4 -12 2 -20 13 -14 20 -20 38 -30 91 -3 14 -14 31 -25 38 -17 10 -19
10 -15 -1z"/>
<path d="M4087 3703 c-4 -3 -7 -15 -7 -25 0 -26 24 -17 28 10 3 21 -8 29 -21
15z"/>
<path d="M16970 3701 c0 -5 12 -17 28 -26 l27 -18 -24 27 c-26 28 -31 31 -31
17z"/>
<path d="M3388 3682 c-3 -11 -2 -25 2 -32 5 -8 9 -5 12 8 3 11 2 25 -2 32 -5
8 -9 5 -12 -8z"/>
<path d="M3533 3680 c1 -11 5 -20 9 -20 4 0 8 9 8 20 0 11 -4 20 -9 20 -6 0
-9 -9 -8 -20z"/>
<path d="M3316 3653 c0 -18 -3 -33 -8 -33 -4 0 -8 -4 -8 -10 0 -5 7 -10 15
-10 8 0 15 7 15 15 0 8 5 15 11 15 5 0 8 4 4 9 -3 5 -1 12 4 16 15 9 3 31 -17
31 -13 0 -17 -8 -16 -33z"/>
<path d="M2587 3660 c3 -11 10 -20 15 -20 5 0 8 -8 6 -17 -2 -11 3 -18 12 -18
8 0 15 10 16 22 1 13 -4 19 -11 17 -7 -3 -15 4 -18 15 -3 12 -10 21 -15 21 -6
0 -8 -9 -5 -20z"/>
<path d="M4140 3666 c0 -8 5 -18 10 -21 6 -3 10 1 10 9 0 8 -4 18 -10 21 -5 3
-10 -1 -10 -9z"/>
<path d="M2225 3660 c3 -5 11 -10 16 -10 6 0 7 5 4 10 -3 6 -11 10 -16 10 -6
0 -7 -4 -4 -10z"/>
<path d="M3511 3648 c-1 -16 4 -28 9 -28 12 0 12 8 0 35 -8 18 -9 17 -9 -7z"/>
<path d="M2716 3651 c-4 -7 -5 -15 -2 -18 9 -9 19 4 14 18 -4 11 -6 11 -12 0z"/>
<path d="M2738 3638 c-12 -23 -14 -29 -17 -48 -2 -17 -21 -11 -21 8 0 13 -2
14 -9 3 -5 -8 -14 -10 -21 -6 -8 5 -11 4 -6 -3 3 -6 -3 -16 -14 -22 -23 -12
-28 -35 -5 -26 18 7 20 -8 2 -26 -7 -7 -16 -21 -20 -30 -4 -11 -12 -15 -22
-12 -18 7 -19 -3 -2 -39 6 -15 19 -27 27 -28 10 0 11 -2 3 -6 -19 -7 -16 -23
9 -44 27 -24 32 -24 25 1 -3 11 -1 23 5 26 5 4 4 13 -5 22 -8 10 -17 26 -21
36 -5 16 -4 17 9 6 21 -18 28 -8 15 24 -8 21 -7 28 6 33 11 4 14 13 9 31 -6
23 -4 24 10 12 19 -16 31 -4 42 43 3 15 8 27 12 27 4 0 7 9 8 20 2 26 -3 25
-19 -2z"/>
<path d="M3455 3650 c3 -5 8 -10 11 -10 2 0 4 5 4 10 0 6 -5 10 -11 10 -5 0
-7 -4 -4 -10z"/>
<path d="M3562 3635 c0 -16 2 -22 5 -12 2 9 2 23 0 30 -3 6 -5 -1 -5 -18z"/>
<path d="M3847 3644 c2 -7 0 -15 -6 -19 -22 -13 -10 -22 31 -23 49 -2 52 -4
43 -32 -4 -13 -12 -19 -21 -16 -9 4 -14 -2 -14 -15 0 -29 20 -19 42 20 20 35
11 55 -28 63 -11 2 -18 11 -16 20 2 11 -4 16 -17 15 -10 0 -17 -6 -14 -13z"/>
<path d="M5291 3606 c-17 -24 -35 -46 -41 -48 -5 -1 -12 -19 -15 -38 -5 -34
-5 -34 7 -10 7 14 27 46 43 70 42 61 47 70 41 70 -3 0 -19 -20 -35 -44z"/>
<path d="M1851 3635 c0 -13 28 -50 33 -44 3 2 -4 15 -14 29 -11 14 -20 21 -19
15z"/>
<path d="M2556 3614 c6 -23 4 -25 -17 -22 -16 2 -25 -3 -27 -14 -2 -12 3 -16
19 -15 33 2 61 77 28 77 -5 0 -6 -11 -3 -26z"/>
<path d="M3806 3623 c-4 -9 -2 -21 4 -27 7 -7 10 -7 10 1 0 6 3 18 6 27 3 9 2
16 -4 16 -5 0 -13 -8 -16 -17z"/>
<path d="M4072 3619 c-12 -19 -11 -20 6 -15 21 7 35 -14 26 -38 -4 -10 2 -16
18 -18 15 -2 24 -11 26 -25 3 -17 0 -21 -12 -17 -11 4 -16 0 -16 -14 0 -22 23
-46 34 -35 4 4 4 0 1 -9 -4 -10 -13 -14 -23 -11 -12 5 -14 2 -9 -11 4 -10 7
-27 7 -38 0 -14 5 -18 15 -14 8 3 15 1 15 -4 0 -6 7 -10 16 -10 14 0 14 -3 4
-15 -9 -11 -9 -15 -1 -15 6 0 16 -11 21 -25 5 -14 16 -25 24 -25 7 0 17 -8 20
-17 5 -12 9 -14 18 -5 7 7 17 12 22 12 6 0 4 -5 -4 -10 -13 -9 -13 -10 0 -10
26 0 40 14 30 30 -15 23 -12 30 10 30 23 0 26 14 7 32 -8 7 -12 20 -10 29 5
18 -25 59 -43 59 -7 0 -9 10 -7 25 5 25 -21 63 -31 46 -4 -5 -1 -11 6 -13 9
-3 9 -6 0 -12 -7 -4 -12 -2 -12 5 0 8 -4 8 -12 1 -10 -8 -13 -4 -15 15 -1 19
1 22 8 12 7 -11 11 -10 23 6 20 26 20 35 1 35 -17 0 -19 18 -6 53 13 34 -13
31 -51 -7 -16 -16 -32 -25 -36 -22 -3 4 0 11 8 16 10 7 11 10 3 10 -7 0 -13 7
-13 15 0 8 -6 15 -14 15 -8 0 -20 2 -28 5 -7 3 -19 -4 -26 -16z m118 -87 c0
-5 -7 -17 -15 -28 -14 -19 -14 -19 -15 2 0 11 3 24 7 27 9 10 23 9 23 -1z m40
-81 c0 -5 -11 -8 -24 -7 -13 0 -22 4 -19 9 6 10 43 9 43 -2z m30 5 c0 -3 -4
-8 -10 -11 -5 -3 -10 -1 -10 4 0 6 5 11 10 11 6 0 10 -2 10 -4z"/>
<path d="M17010 3633 c8 -3 22 -11 30 -17 13 -10 13 -9 1 7 -7 9 -21 17 -30
16 -13 0 -14 -1 -1 -6z"/>
<path d="M2166 3623 l-29 -5 28 -14 c15 -8 30 -12 33 -9 3 3 0 5 -8 5 -10 0
-10 3 0 15 7 8 11 14 9 14 -2 -1 -17 -4 -33 -6z"/>
<path d="M3377 3613 c-4 -3 -7 -14 -7 -24 0 -9 -6 -19 -14 -22 -20 -8 2 -77
24 -70 13 4 13 3 0 -9 -20 -17 -23 -65 -4 -72 35 -14 65 92 35 127 -6 8 -9 22
-5 31 4 9 1 16 -6 16 -10 0 -10 3 0 15 10 12 10 15 -2 15 -8 0 -18 -3 -21 -7z"/>
<path d="M8865 3595 c0 -13 5 -21 10 -18 6 3 5 0 -2 -7 -9 -10 -9 -19 3 -41
15 -29 41 -41 31 -15 -3 8 -9 30 -12 50 -9 43 -30 66 -30 31z"/>
<path d="M3615 3601 c-3 -6 -3 -16 0 -21 4 -6 2 -17 -4 -24 -8 -10 -6 -12 11
-11 12 1 22 8 23 16 3 21 -21 53 -30 40z"/>
<path d="M3700 3584 c0 -8 5 -12 10 -9 6 3 10 10 10 16 0 5 -4 9 -10 9 -5 0
-10 -7 -10 -16z"/>
<path d="M1828 3578 c-2 -7 5 -38 16 -69 23 -62 48 -71 39 -13 -5 31 -3 35 27
48 31 13 32 14 13 24 -11 6 -29 9 -40 6 -12 -3 -24 -1 -27 5 -9 15 -23 14 -28
-1z"/>
<path d="M3325 3580 c3 -5 10 -10 16 -10 5 0 9 5 9 10 0 6 -7 10 -16 10 -8 0
-12 -4 -9 -10z"/>
<path d="M3739 3567 c-14 -12 -28 -30 -32 -39 -8 -24 -40 -39 -58 -27 -11 7
-11 9 4 9 10 0 17 8 17 20 0 11 5 20 11 20 5 0 7 5 4 10 -4 6 -14 1 -25 -13
-11 -14 -33 -27 -50 -31 -18 -3 -29 -10 -25 -16 3 -5 2 -10 -4 -10 -5 0 -13 5
-16 10 -8 13 -25 3 -25 -16 0 -8 8 -14 17 -14 15 0 15 -1 -2 -13 -11 -9 -14
-16 -7 -21 6 -3 14 -2 17 4 4 6 16 8 28 5 13 -4 17 -3 11 2 -6 4 -8 17 -4 27
4 14 9 16 14 8 4 -7 12 -10 17 -6 6 3 28 8 50 10 45 6 51 -8 17 -37 l-23 -18
31 11 c30 11 37 29 20 56 -5 8 2 28 18 53 30 45 30 47 -5 16z"/>
<path d="M15275 3570 c-26 -29 -14 -33 14 -4 13 13 19 24 14 24 -6 0 -18 -9
-28 -20z"/>
<path d="M3827 3573 c-4 -3 -7 -11 -7 -17 0 -6 5 -5 12 2 6 6 9 14 7 17 -3 3
-9 2 -12 -2z"/>
<path d="M8535 3570 c3 -5 8 -10 11 -10 2 0 4 5 4 10 0 6 -5 10 -11 10 -5 0
-7 -4 -4 -10z"/>
<path d="M6440 3560 c0 -5 7 -7 15 -4 8 4 15 8 15 10 0 2 -7 4 -15 4 -8 0 -15
-4 -15 -10z"/>
<path d="M13095 3544 c-9 -15 -12 -23 -6 -20 11 7 35 46 28 46 -3 0 -12 -12
-22 -26z"/>
<path d="M2494 3551 c4 -6 0 -11 -9 -11 -24 0 -9 -17 20 -22 31 -6 34 16 4 33
-15 8 -19 8 -15 0z"/>
<path d="M8925 3530 c11 -53 28 -74 20 -25 -4 22 -11 45 -17 50 -7 7 -8 -1 -3
-25z"/>
<path d="M13066 3544 c-5 -14 -4 -15 9 -4 17 14 19 20 6 20 -5 0 -12 -7 -15
-16z"/>
<path d="M15292 3547 c-7 -8 -7 -18 -1 -27 8 -13 10 -13 19 0 21 32 5 55 -18
27z"/>
<path d="M3566 3533 c-6 -14 -5 -15 5 -6 7 7 10 15 7 18 -3 3 -9 -2 -12 -12z"/>
<path d="M4260 3540 c0 -13 18 -22 24 -11 3 5 -1 11 -9 15 -8 3 -15 1 -15 -4z"/>
<path d="M8770 3541 c0 -5 5 -13 10 -16 6 -3 10 -2 10 4 0 5 -4 13 -10 16 -5
3 -10 2 -10 -4z"/>
<path d="M8827 3528 c-4 -12 -4 -34 -1 -48 3 -14 7 -35 10 -47 2 -13 9 -23 15
-23 8 0 9 14 4 43 -3 23 -8 52 -9 65 -5 32 -12 37 -19 10z"/>
<path d="M3793 3532 c-7 -4 -9 -13 -5 -19 5 -8 11 -7 19 3 14 15 3 27 -14 16z"/>
<path d="M3973 3533 c-7 -2 -13 -21 -13 -41 l1 -37 20 25 c19 22 19 25 5 28
-14 3 -15 7 -5 18 12 15 11 15 -8 7z"/>
<path d="M5258 3484 c-27 -45 -37 -74 -41 -122 -5 -63 -1 -102 12 -102 23 0
81 234 69 272 -2 6 -20 -15 -40 -48z m-21 -116 c-3 -8 -6 -5 -6 6 -1 11 2 17
5 13 3 -3 4 -12 1 -19z"/>
<path d="M6440 3530 c-8 -5 -11 -12 -7 -16 4 -4 13 -2 19 4 15 15 7 24 -12 12z"/>
<path d="M15325 3530 c-3 -5 -2 -10 4 -10 5 0 13 5 16 10 3 6 2 10 -4 10 -5 0
-13 -4 -16 -10z"/>
<path d="M3735 3510 c-8 -13 5 -13 25 0 13 8 13 10 -2 10 -9 0 -20 -4 -23 -10z"/>
<path d="M5527 3513 c-4 -3 -7 -11 -7 -17 0 -6 5 -5 12 2 6 6 9 14 7 17 -3 3
-9 2 -12 -2z"/>
<path d="M6407 3496 c-4 -10 0 -12 14 -9 10 3 16 9 13 14 -8 13 -21 11 -27 -5z"/>
<path d="M8871 3442 c-1 -65 21 -138 38 -127 6 3 7 15 2 28 -4 12 -6 27 -4 34
2 6 -1 14 -6 18 -6 3 -11 15 -11 27 0 17 2 18 15 8 21 -18 19 2 -3 26 -11 11
-22 26 -25 34 -3 8 -6 -13 -6 -48z"/>
<path d="M5162 3470 c-6 -11 -12 -40 -12 -65 0 -28 -4 -44 -10 -40 -5 3 -10
21 -10 38 0 41 -16 19 -25 -35 -4 -21 -10 -36 -13 -34 -4 2 -7 -9 -8 -25 -1
-16 -9 -38 -18 -48 -9 -10 -19 -36 -22 -57 l-6 -39 46 67 c25 37 46 71 46 76
0 5 8 20 18 33 15 19 40 149 29 149 -1 0 -8 -9 -15 -20z"/>
<path d="M8976 3483 c-10 -10 -7 -53 5 -53 5 0 7 -5 3 -12 -4 -7 -3 -8 4 -4
17 10 124 -99 139 -142 27 -77 16 -78 -57 -1 -38 40 -70 77 -70 81 0 4 -4 8
-10 8 -14 0 -12 -26 3 -42 7 -7 21 -25 31 -40 10 -16 24 -28 32 -28 15 0 52
-74 60 -123 l6 -32 -21 25 -21 25 0 -27 c0 -14 16 -59 35 -99 19 -41 35 -87
35 -104 0 -17 9 -47 20 -68 11 -20 20 -48 20 -62 0 -16 6 -25 15 -25 26 0 30
4 26 29 -1 13 3 27 9 31 9 5 5 22 -13 61 -33 71 -43 104 -28 95 7 -5 12 6 13
31 2 51 1 53 -7 88 l-8 30 43 -42 c40 -40 76 -61 86 -50 4 4 -22 88 -37 119
-12 23 -11 31 1 23 20 -13 9 12 -16 36 -15 13 -32 38 -40 54 -7 17 -25 37 -41
45 -15 8 -38 22 -51 32 -13 9 -30 14 -37 11 -14 -5 -26 16 -55 94 -7 17 -18
34 -26 37 -12 5 -11 0 2 -27 l15 -32 -29 32 c-16 18 -32 30 -36 26z"/>
<path d="M3510 3469 c0 -5 5 -7 10 -4 6 3 10 8 10 11 0 2 -4 4 -10 4 -5 0 -10
-5 -10 -11z"/>
<path d="M3771 3466 c-10 -12 -8 -13 8 -9 12 3 21 9 21 14 0 14 -16 11 -29 -5z"/>
<path d="M3820 3470 c-8 -5 -12 -12 -9 -15 4 -3 12 1 19 10 14 17 11 19 -10 5z"/>
<path d="M3995 3470 c-3 -5 -1 -10 4 -10 6 0 11 5 11 10 0 6 -2 10 -4 10 -3 0
-8 -4 -11 -10z"/>
<path d="M3850 3460 c0 -5 7 -10 15 -10 8 0 15 5 15 10 0 6 -7 10 -15 10 -8 0
-15 -4 -15 -10z"/>
<path d="M4030 3461 c0 -5 -12 -14 -27 -19 -28 -9 -28 -9 -5 -16 14 -5 29 -3
37 4 17 14 20 40 5 40 -5 0 -10 -4 -10 -9z"/>
<path d="M5645 3430 c-4 -6 -14 -9 -23 -8 -10 2 -21 -10 -31 -37 -8 -22 -18
-42 -21 -45 -17 -14 -36 -117 -27 -150 5 -19 8 -50 8 -67 -1 -18 3 -33 8 -33
5 0 11 -22 15 -49 6 -47 47 -180 65 -212 5 -9 15 -35 21 -58 6 -23 15 -39 20
-36 5 3 14 -10 21 -28 6 -18 27 -44 45 -56 38 -26 101 -43 110 -30 3 5 1 9 -4
9 -5 0 -15 25 -22 55 -7 30 -19 60 -27 66 -7 6 -11 15 -8 19 2 4 -7 56 -21
116 -14 60 -27 120 -29 134 -1 14 -8 57 -15 95 -7 39 -14 88 -16 110 -4 49
-26 110 -47 136 -11 13 -15 28 -11 49 6 30 1 39 -11 20z"/>
<path d="M2947 3423 c-4 -3 -7 -13 -7 -22 1 -13 3 -13 11 2 11 19 8 33 -4 20z"/>
<path d="M3735 3420 c-3 -5 -1 -10 4 -10 6 0 11 5 11 10 0 6 -2 10 -4 10 -3 0
-8 -4 -11 -10z"/>
<path d="M3790 3410 c0 -5 5 -10 10 -10 6 0 10 5 10 10 0 6 -4 10 -10 10 -5 0
-10 -4 -10 -10z"/>
<path d="M3910 3405 c-16 -19 0 -19 26 0 16 12 16 14 3 15 -9 0 -22 -7 -29
-15z"/>
<path d="M3071 3400 c0 -8 6 -24 14 -34 11 -15 15 -16 15 -5 0 8 -7 24 -15 35
-11 14 -14 15 -14 4z"/>
<path d="M8767 3389 c4 -13 8 -18 11 -10 2 7 -1 18 -6 23 -8 8 -9 4 -5 -13z"/>
<path d="M3567 3393 c-4 -3 -7 -13 -7 -22 1 -13 3 -13 11 2 11 19 8 33 -4 20z"/>
<path d="M3994 3380 c0 -23 7 -25 24 -8 17 17 15 28 -6 28 -11 0 -18 -7 -18
-20z"/>
<path d="M7370 3391 c0 -5 5 -13 10 -16 6 -3 10 -2 10 4 0 5 -4 13 -10 16 -5
3 -10 2 -10 -4z"/>
<path d="M10636 3387 c3 -10 9 -15 12 -12 3 3 0 11 -7 18 -10 9 -11 8 -5 -6z"/>
<path d="M8835 3376 c-6 -13 0 -34 18 -67 15 -26 27 -52 27 -59 0 -20 44 -60
67 -60 12 0 24 -6 27 -12 3 -7 3 -2 0 12 -4 14 -10 27 -13 30 -4 3 -17 22 -30
43 -13 21 -26 36 -28 33 -8 -8 -44 41 -53 72 -7 24 -8 25 -15 8z"/>
<path d="M8946 3382 c-2 -4 -1 -14 5 -22 7 -12 9 -10 9 8 0 23 -5 28 -14 14z"/>
<path d="M2920 3365 c0 -8 2 -15 4 -15 2 0 6 7 10 15 3 8 1 15 -4 15 -6 0 -10
-7 -10 -15z"/>
<path d="M4055 3366 c-27 -11 -28 -13 -10 -20 11 -5 33 -10 48 -11 28 -3 28
-2 10 19 -10 11 -18 22 -18 23 0 0 -13 -4 -30 -11z"/>
<path d="M5039 3360 c-1 -32 -10 -65 -19 -74 -6 -6 -10 -24 -10 -40 l0 -31 15
29 c8 15 15 37 15 47 0 11 6 28 12 39 10 15 10 22 0 32 -9 9 -12 9 -13 -2z"/>
<path d="M10610 3360 c0 -5 -7 -10 -15 -10 -9 0 -12 -6 -8 -17 7 -21 52 -67
59 -61 2 3 -3 26 -12 51 -15 45 -24 58 -24 37z"/>
<path d="M3876 3351 c-4 -5 3 -7 14 -4 23 6 26 13 6 13 -8 0 -17 -4 -20 -9z"/>
<path d="M2960 3330 c0 -5 5 -10 11 -10 5 0 7 5 4 10 -3 6 -8 10 -11 10 -2 0
-4 -4 -4 -10z"/>
<path d="M14875 3330 c-3 -5 -12 -7 -20 -3 -11 4 -13 1 -9 -11 8 -21 17 -20
32 4 7 11 10 20 8 20 -3 0 -7 -4 -11 -10z"/>
<path d="M3940 3315 c0 -8 5 -15 10 -15 6 0 10 7 10 15 0 8 -4 15 -10 15 -5 0
-10 -7 -10 -15z"/>
<path d="M3523 3306 c-73 -19 -125 -65 -147 -127 -11 -30 -25 -63 -31 -74 -18
-29 -27 -75 -15 -75 5 0 10 4 10 9 0 5 6 11 14 14 9 4 24 -9 40 -34 30 -45 23
-50 -18 -12 l-29 27 7 -30 c4 -16 9 -30 11 -32 2 -2 37 -9 79 -14 97 -14 144
-1 222 60 33 26 67 45 78 43 11 -1 16 2 11 8 -3 6 -11 9 -16 6 -12 -8 -12 -3
6 38 8 20 15 54 15 76 0 22 5 43 10 46 14 8 3 25 -16 25 -9 0 -31 12 -50 27
-41 30 -112 38 -181 19z m158 -64 c29 -14 34 -23 37 -56 7 -86 -53 -163 -159
-202 -44 -16 -45 -16 -95 9 -36 18 -56 36 -68 62 -10 19 -21 33 -26 30 -14 -9
20 70 43 99 12 14 32 28 44 31 12 2 34 12 49 22 28 18 28 18 19 -2 -16 -38
-17 -82 -1 -118 30 -73 55 -27 38 70 -5 32 -8 62 -5 66 3 5 21 7 39 5 26 -3
34 0 34 12 0 11 2 12 9 2 4 -7 23 -21 42 -30z"/>
<path d="M2400 3300 c0 -13 20 -13 40 0 12 8 9 10 -12 10 -16 0 -28 -4 -28
-10z"/>
<path d="M2830 3288 c0 -16 5 -28 10 -28 13 0 13 20 0 40 -8 12 -10 9 -10 -12z"/>
<path d="M4070 3301 c0 -11 59 -26 67 -17 3 3 -6 10 -21 16 -34 12 -46 13 -46
1z"/>
<path d="M7540 3301 c0 -5 7 -12 16 -15 14 -5 15 -4 4 9 -14 17 -20 19 -20 6z"/>
<path d="M2360 3290 c0 -5 5 -10 11 -10 5 0 7 5 4 10 -3 6 -8 10 -11 10 -2 0
-4 -4 -4 -10z"/>
<path d="M8774 3257 c10 -62 55 -182 56 -147 0 20 2 22 10 10 8 -11 9 -6 8 19
-2 22 2 36 11 39 8 2 11 1 8 -4 -3 -5 1 -18 9 -29 14 -18 14 -18 14 3 0 12
-13 36 -30 54 -23 23 -30 27 -30 14 0 -29 -19 -7 -26 29 -3 19 -13 40 -22 47
-13 12 -14 8 -8 -35z"/>
<path d="M3038 3260 c-7 -24 -3 -38 8 -28 3 4 4 17 2 30 l-3 23 -7 -25z"/>
<path d="M10760 3268 c0 -7 5 -20 10 -28 8 -12 10 -11 10 7 0 12 -4 25 -10 28
-5 3 -10 0 -10 -7z"/>
<path d="M15507 3274 c-3 -5 1 -15 9 -22 16 -14 18 -5 5 17 -5 7 -11 9 -14 5z"/>
<path d="M3950 3250 c0 -8 -18 -11 -60 -8 -33 1 -60 0 -60 -4 0 -12 35 -27 79
-34 23 -4 44 -11 47 -15 3 -5 10 -7 15 -4 5 4 9 1 9 -4 0 -6 7 -11 15 -11 8 0
15 5 15 12 0 6 14 -1 30 -17 20 -19 27 -32 20 -39 -5 -5 -10 -16 -10 -24 0
-12 3 -12 16 -1 13 10 17 10 24 0 4 -8 13 -10 21 -6 11 6 11 5 2 -5 -16 -17
-5 -39 17 -33 18 5 17 6 -2 39 -11 19 -26 34 -34 34 -8 0 -14 9 -14 20 0 11
-4 20 -10 20 -5 0 -10 7 -10 15 0 9 -7 18 -15 21 -8 4 -15 13 -15 21 0 10 -6
13 -16 9 -8 -3 -26 1 -40 10 -16 11 -24 13 -24 4z"/>
<path d="M10817 3247 c-4 -10 -11 -15 -17 -12 -19 11 -17 -99 2 -122 6 -7 8
-16 5 -20 -4 -3 -2 -12 4 -20 9 -10 8 -13 0 -13 -7 0 -11 -6 -10 -12 4 -32 -2
-58 -20 -79 -17 -21 -20 -22 -34 -7 -21 20 -39 126 -23 131 8 3 7 12 -3 30 -8
15 -19 23 -27 20 -8 -3 -31 3 -52 13 -26 13 -61 18 -117 19 -83 0 -98 -5 -252
-83 -33 -16 -33 -17 -11 -28 13 -7 26 -10 30 -8 3 2 10 0 13 -6 4 -6 14 -8 24
-5 13 4 17 -1 16 -22 -2 -42 25 -82 73 -110 32 -19 46 -23 55 -14 13 13 31 15
23 2 -10 -15 63 -18 102 -3 20 8 51 16 67 19 28 4 29 3 11 -11 -10 -8 -19 -29
-21 -46 -1 -18 -8 -36 -15 -40 -7 -4 -10 -12 -6 -18 3 -5 -1 -12 -9 -16 -28
-10 -17 -29 15 -23 30 6 50 -6 28 -17 -7 -4 4 -4 25 -2 23 3 37 1 37 -6 0 -6
-3 -8 -6 -5 -10 10 -44 -12 -44 -28 0 -8 5 -15 11 -15 5 0 8 4 4 9 -7 13 16
26 24 14 3 -6 12 -12 20 -14 11 -4 11 -7 -1 -20 -8 -8 -12 -21 -10 -28 8 -23
54 -59 95 -72 23 -7 50 -28 68 -51 36 -44 69 -51 69 -14 0 14 -7 32 -16 40 -9
10 -14 29 -12 48 3 27 0 32 -20 33 -52 4 -70 65 -19 65 16 0 26 -8 34 -27 l11
-28 1 31 c1 31 -27 74 -48 74 -6 0 -11 5 -11 11 0 5 -5 7 -12 3 -7 -5 -8 -3
-3 5 5 9 10 10 18 2 18 -18 29 -13 22 9 -6 18 -3 18 21 -5 31 -29 44 -32 44
-10 0 8 5 15 10 15 6 0 10 -5 10 -11 0 -8 4 -8 13 -2 6 5 18 8 25 7 6 -1 18
-2 25 -3 8 -1 7 -4 -3 -11 -12 -7 -12 -12 -2 -22 9 -9 12 -8 13 8 1 10 1 27 0
36 -2 13 2 16 15 11 11 -4 15 -2 11 4 -4 6 3 13 14 16 16 4 19 2 15 -10 -4
-11 -2 -13 9 -9 9 3 15 0 15 -9 0 -9 -6 -12 -17 -8 -11 4 -14 3 -9 -6 5 -7 16
-9 28 -5 14 4 18 2 14 -5 -11 -17 30 -13 44 4 7 8 16 12 21 9 5 -3 9 4 9 15 0
25 18 37 33 22 6 -6 24 -11 40 -11 26 0 28 -2 16 -16 -11 -13 -9 -14 13 -9 18
5 27 2 31 -9 4 -11 1 -13 -11 -10 -14 5 -15 4 -2 -5 18 -13 50 -14 50 -2 0 5
-7 14 -15 21 -8 7 -13 16 -10 20 3 5 -1 14 -8 22 -16 16 -30 51 -18 43 18 -10
22 15 10 50 -14 38 -24 44 -33 20 -3 -8 -11 -15 -17 -15 -8 0 -8 4 -2 13 9 12
15 57 8 57 -2 0 -13 -10 -24 -22 -19 -20 -22 -20 -39 -5 -17 16 -42 23 -42 12
0 -2 5 -16 12 -30 8 -18 14 -22 19 -13 5 7 6 -6 4 -30 -2 -23 1 -42 6 -42 5 0
9 5 9 11 0 7 10 0 21 -15 25 -31 18 -47 -9 -23 -10 10 -26 17 -34 17 -9 0 -19
6 -21 13 -4 9 -6 8 -6 -2 -1 -11 -4 -11 -17 0 -19 16 -54 22 -54 10 0 -5 9
-11 21 -14 18 -5 19 -8 8 -20 -12 -13 -15 -12 -25 2 -19 27 -26 88 -12 94 8 4
7 6 -4 6 -10 1 -22 10 -29 22 -8 16 -18 20 -39 17 -16 -2 -27 -1 -24 3 2 4 -5
11 -16 14 -17 5 -19 10 -10 20 8 10 9 19 1 32 -10 17 -10 17 -11 0 0 -11 -7
-18 -17 -16 -31 3 -43 -1 -40 -11 1 -6 -9 -16 -23 -23 -15 -8 -24 -20 -22 -31
2 -13 -1 -16 -15 -12 -24 7 -48 -8 -38 -24 5 -8 4 -11 -3 -6 -5 3 -12 0 -15
-6 -2 -7 -8 -9 -13 -5 -5 4 -3 12 5 16 7 5 12 11 12 15 -3 21 1 27 13 23 9 -4
14 0 14 11 0 9 3 25 7 35 4 10 3 17 -4 17 -7 0 -5 11 6 27 13 19 14 28 5 31
-7 2 -9 9 -5 15 4 6 8 25 10 41 l3 30 -25 -24 -26 -25 14 28 c8 16 13 37 10
48 -6 22 -23 16 -23 -9 -1 -15 -2 -15 -11 2 -8 13 -8 20 1 26 6 4 10 18 8 31
-3 21 -4 22 -11 6z m-189 -206 c3 -21 -13 -28 -34 -13 -14 10 -25 42 -18 53 9
15 49 -15 52 -40z m-138 -17 c0 -28 37 -84 56 -84 7 0 24 14 37 30 30 35 33
36 40 11 4 -16 -4 -24 -35 -40 -55 -27 -88 -14 -113 41 -17 40 -19 41 -28 20
-7 -16 -5 -28 7 -46 31 -48 10 -63 -37 -26 -33 26 -44 72 -23 102 9 12 16 17
16 11 0 -13 38 -9 53 6 15 15 27 3 27 -25z m-26 -50 c3 -8 2 -12 -4 -9 -6 3
-10 10 -10 16 0 14 7 11 14 -7z m613 -36 c-3 -8 -6 -5 -6 6 -1 11 2 17 5 13 3
-3 4 -12 1 -19z m-23 -48 c3 -3 -6 -7 -19 -8 -13 -1 -26 2 -29 6 -5 9 39 10
48 2z m286 1 c0 -6 -4 -13 -10 -16 -5 -3 -10 1 -10 9 0 9 5 16 10 16 6 0 10
-4 10 -9z m-530 -11 c-20 -13 -33 -13 -25 0 3 6 14 10 23 10 15 0 15 -2 2 -10z
m185 0 c3 -5 1 -10 -4 -10 -6 0 -11 5 -11 10 0 6 2 10 4 10 3 0 8 -4 11 -10z
m6 -63 c-10 -9 -11 -8 -5 6 3 10 9 15 12 12 3 -3 0 -11 -7 -18z m74 13 c3 -5
1 -10 -4 -10 -6 0 -11 5 -11 10 0 6 2 10 4 10 3 0 8 -4 11 -10z m-363 -22 c-9
-9 -15 -9 -24 0 -9 9 -7 12 12 12 19 0 21 -3 12 -12z m318 -2 c0 -3 -4 -8 -10
-11 -5 -3 -10 -1 -10 4 0 6 5 11 10 11 6 0 10 -2 10 -4z m-173 -62 c-3 -3 -12
-4 -19 -1 -8 3 -5 6 6 6 11 1 17 -2 13 -5z m-50 -36 c-3 -8 -6 -5 -6 6 -1 11
2 17 5 13 3 -3 4 -12 1 -19z"/>
<path d="M2846 3234 c-3 -9 -6 -26 -6 -40 0 -17 4 -22 15 -18 12 5 13 10 5 20
-8 9 -8 18 0 33 6 12 7 21 1 21 -5 0 -12 -7 -15 -16z"/>
<path d="M8991 3212 c2 -23 7 -42 11 -42 4 0 8 -6 8 -13 0 -7 10 -33 22 -58
11 -24 36 -107 54 -184 17 -77 39 -160 48 -184 20 -53 20 -62 1 -37 -15 20
-15 20 -15 0 0 -10 9 -30 20 -44 l20 -25 0 25 c0 19 2 22 10 10 12 -19 22 -8
27 27 3 30 -24 103 -43 116 -7 4 -15 25 -19 47 -4 22 -11 42 -16 46 -5 3 -9
18 -9 33 0 16 -9 49 -20 74 -11 25 -23 67 -26 94 -4 26 -11 54 -17 60 -5 7 -7
19 -4 26 5 14 -7 34 -36 56 -17 13 -18 11 -16 -27z"/>
<path d="M9947 3243 c-11 -10 -9 -16 17 -45 27 -33 36 -35 36 -10 0 21 -43 66
-53 55z"/>
<path d="M10720 3240 c0 -5 5 -10 10 -10 6 0 10 5 10 10 0 6 -4 10 -10 10 -5
0 -10 -4 -10 -10z"/>
<path d="M15023 3212 c-16 -11 -16 -14 -3 -22 11 -7 5 -10 -22 -10 -27 0 -38
-4 -38 -15 0 -9 6 -12 18 -8 16 6 16 5 1 -13 -17 -20 -31 -51 -33 -71 -1 -16
-54 -73 -67 -73 -5 0 -14 -11 -19 -25 -6 -16 -17 -25 -31 -25 -16 0 -19 4 -14
18 18 44 19 56 2 49 -22 -8 -23 25 -3 43 8 6 13 17 10 24 -3 8 2 16 10 19 17
7 22 27 8 27 -5 0 -18 -9 -30 -21 -18 -16 -23 -17 -28 -5 -9 24 -52 28 -84 9
-33 -19 -39 -33 -15 -33 8 0 15 4 15 9 0 5 11 8 25 5 14 -2 25 0 25 6 0 5 5
10 10 10 22 0 8 -20 -17 -25 -49 -10 -115 -45 -110 -58 2 -6 -3 -17 -12 -24
-15 -11 -15 -12 0 -13 9 0 19 7 23 15 3 8 17 15 31 15 15 0 35 5 46 10 15 9
19 7 19 -5 0 -9 -13 -21 -30 -26 -28 -10 -29 -12 -15 -32 26 -37 19 -49 -22
-41 -50 9 -52 12 -25 34 25 21 28 30 9 30 -19 0 -59 -39 -51 -51 3 -6 -2 -9
-12 -7 -11 2 -18 -2 -16 -9 1 -7 -2 -13 -8 -13 -5 0 -10 -4 -10 -9 0 -11 72
-3 85 10 13 13 28 11 19 -3 -5 -8 0 -9 14 -6 12 4 22 2 22 -3 0 -5 -14 -9 -31
-9 -16 0 -28 -4 -25 -9 4 -5 -2 -7 -12 -4 -10 2 -26 -5 -36 -16 -11 -12 -25
-21 -33 -21 -7 0 -13 -5 -13 -11 0 -11 19 -10 80 5 18 5 17 2 -7 -9 -33 -15
-71 -61 -59 -72 3 -3 6 -1 6 6 0 8 7 10 19 6 13 -4 23 0 30 12 5 10 13 14 18
10 4 -5 0 -13 -10 -18 -25 -14 -23 -42 3 -34 11 4 20 2 20 -4 0 -6 -4 -11 -9
-11 -5 0 -11 -9 -14 -19 -4 -15 1 -21 22 -24 25 -4 25 -5 4 -12 -21 -7 -39
-48 -28 -65 4 -6 2 -10 -4 -10 -6 0 4 -14 21 -32 l31 -32 23 28 c29 33 31 23
5 -19 -18 -31 -18 -31 3 -33 11 0 27 5 36 12 19 17 60 38 60 32 0 -3 -15 -13
-32 -23 l-33 -17 35 -6 c19 -3 128 -4 243 -2 174 2 207 5 207 17 0 8 5 15 11
15 6 0 9 -7 5 -15 -4 -13 8 -15 80 -15 76 0 85 2 82 18 -2 10 -11 16 -21 14
-15 -3 -17 3 -11 40 8 50 15 60 46 63 37 4 38 4 32 20 -4 8 -1 15 5 15 6 0 8
7 5 15 -4 8 -2 15 3 15 13 0 9 35 -6 53 -11 14 -15 13 -32 -4 -23 -23 -62 -22
-67 2 -2 13 9 18 50 23 29 4 61 14 70 23 20 18 39 9 32 -15 -2 -9 1 -7 7 6 10
19 9 25 -7 37 -10 8 -14 15 -7 15 11 0 31 36 46 80 4 10 6 8 6 -6 1 -12 9 -24
20 -27 19 -5 19 -3 1 47 -28 80 -31 86 -45 86 -7 0 -20 15 -29 34 -9 19 -27
44 -41 54 -13 11 -22 22 -18 25 3 4 -2 9 -11 13 -10 4 -22 17 -27 30 -10 27
-49 33 -49 8 0 -8 4 -13 9 -9 6 3 13 -1 18 -8 4 -7 16 -17 26 -20 10 -4 15
-11 12 -17 -4 -6 -15 -4 -30 6 -18 12 -24 12 -28 2 -3 -7 -6 -8 -6 -2 -1 8
-14 9 -40 4 -24 -4 -44 -3 -55 5 -29 22 -18 35 28 35 31 0 46 5 50 16 10 26 8
27 -39 21 -25 -4 -45 -3 -45 2 0 5 -18 5 -42 0 -23 -6 -48 -6 -57 -2 -26 12
-109 9 -128 -5z m74 -18 c-3 -3 -12 -4 -19 -1 -8 3 -5 6 6 6 11 1 17 -2 13 -5z
m62 -23 c7 -5 9 -11 5 -14 -5 -3 -15 1 -22 9 -14 16 -5 18 17 5z m71 -23 c0
-5 -7 -8 -15 -8 -15 0 -20 21 -8 33 7 7 23 -11 23 -25z m-70 -87 c0 -6 -4 -13
-10 -16 -5 -3 -10 1 -10 9 0 9 5 16 10 16 6 0 10 -4 10 -9z m-460 -21 c-20
-13 -43 -13 -35 0 3 6 16 10 28 10 18 0 19 -2 7 -10z m700 -16 c0 -8 -5 -12
-10 -9 -6 4 -8 11 -5 16 9 14 15 11 15 -7z m-599 -47 c-10 -9 -11 -8 -5 6 3
10 9 15 12 12 3 -3 0 -11 -7 -18z m732 9 c4 -10 1 -13 -9 -9 -15 6 -19 23 -5
23 5 0 11 -7 14 -14z m-813 -196 c0 -5 -4 -10 -10 -10 -5 0 -10 5 -10 10 0 6
5 10 10 10 6 0 10 -4 10 -10z m115 -10 c-3 -5 -10 -10 -16 -10 -5 0 -9 5 -9
10 0 6 7 10 16 10 8 0 12 -4 9 -10z m20 -20 c-3 -5 -11 -10 -16 -10 -6 0 -7 5
-4 10 3 6 11 10 16 10 6 0 7 -4 4 -10z m475 0 c0 -5 -4 -10 -10 -10 -5 0 -10
5 -10 10 0 6 5 10 10 10 6 0 10 -4 10 -10z m-540 -30 c0 -5 -5 -10 -11 -10 -5
0 -7 5 -4 10 3 6 8 10 11 10 2 0 4 -4 4 -10z m72 -6 c-12 -8 -28 -13 -35 -11
-7 3 -1 9 13 15 37 16 47 14 22 -4z m-177 -74 c-3 -5 -12 -10 -18 -10 -7 0 -6
4 3 10 19 12 23 12 15 0z m59 -14 c-4 -11 0 -13 18 -9 23 5 23 5 3 -10 -11 -9
-23 -17 -26 -17 -10 0 -20 30 -13 41 9 15 24 10 18 -5z m-24 -20 c0 -3 -4 -8
-10 -11 -5 -3 -10 -1 -10 4 0 6 5 11 10 11 6 0 10 -2 10 -4z m237 -23 c-10
-22 -13 -24 -15 -9 -2 10 2 22 10 27 19 12 19 12 5 -18z m373 -13 c21 -19 22
-22 9 -46 l-14 -26 -6 28 c-4 16 -10 37 -14 47 -9 22 -3 22 25 -3z m-232 -3
c2 -4 2 -13 -1 -20 -2 -8 -8 -7 -20 5 -9 9 -17 18 -17 21 0 7 35 1 38 -6z
m-96 -19 c-7 -7 -12 -8 -12 -2 0 14 12 26 19 19 2 -3 -1 -11 -7 -17z m303 -17
c3 -5 1 -12 -5 -16 -5 -3 -10 1 -10 9 0 18 6 21 15 7z"/>
<path d="M15540 3219 c0 -5 5 -7 10 -4 6 3 10 8 10 11 0 2 -4 4 -10 4 -5 0
-10 -5 -10 -11z"/>
<path d="M8760 3205 c0 -38 13 -95 21 -95 5 0 9 14 9 30 0 17 -5 30 -11 30 -5
0 -7 4 -4 10 3 5 1 18 -4 27 -10 17 -10 16 -11 -2z"/>
<path d="M11485 3200 c-67 -21 -140 -83 -151 -126 -11 -45 15 -103 57 -124 58
-30 110 -35 169 -15 28 9 49 20 46 23 -3 3 0 12 7 20 10 14 9 15 -8 7 -11 -4
-32 -10 -47 -13 -31 -5 -38 -21 -10 -23 9 -1 1 -5 -18 -9 -48 -12 -110 16
-138 62 -12 20 -22 40 -22 47 0 6 22 22 49 35 l49 23 5 -27 c8 -35 54 -90 77
-90 10 0 24 14 34 34 20 42 20 50 0 42 -22 -9 -54 11 -54 34 0 16 7 20 34 20
19 0 37 -4 40 -9 3 -5 17 -8 31 -8 30 0 55 -19 55 -42 0 -9 -12 -34 -26 -55
-23 -33 -23 -36 -6 -27 36 19 63 74 60 125 -2 25 -7 46 -11 46 -5 0 -6 4 -2 9
3 6 -14 21 -38 35 -52 31 -98 32 -182 6z m185 -25 c14 -8 21 -14 15 -14 -5 0
-21 6 -35 14 -14 8 -20 14 -15 14 6 0 21 -6 35 -14z"/>
<path d="M3090 3200 c0 -5 5 -10 11 -10 5 0 7 5 4 10 -3 6 -8 10 -11 10 -2 0
-4 -4 -4 -10z"/>
<path d="M2940 3171 c0 -5 -3 -18 -6 -28 -5 -16 -4 -16 10 1 18 23 20 36 6 36
-5 0 -10 -4 -10 -9z"/>
<path d="M3110 3155 c0 -8 -7 -15 -15 -15 -8 0 -15 -2 -15 -4 0 -2 -3 -13 -6
-23 -6 -14 -4 -16 6 -6 7 6 18 9 25 7 8 -3 12 6 13 26 0 16 -1 30 -4 30 -2 0
-4 -7 -4 -15z"/>
<path d="M5016 3144 c-15 -39 4 -42 24 -3 8 15 7 19 -4 19 -7 0 -17 -7 -20
-16z"/>
<path d="M5234 3129 c-3 -6 -1 -16 5 -22 8 -8 11 -5 11 11 0 24 -5 28 -16 11z"/>
<path d="M2830 3118 c0 -7 5 -20 10 -28 8 -12 10 -9 10 13 0 15 -4 27 -10 27
-5 0 -10 -6 -10 -12z"/>
<path d="M9860 3122 c0 -19 19 -52 30 -52 15 0 12 12 -10 40 -11 14 -20 19
-20 12z"/>
<path d="M9980 3106 c0 -2 7 -7 16 -10 8 -3 12 -2 9 4 -6 10 -25 14 -25 6z"/>
<path d="M8555 3091 c-3 -5 -2 -12 3 -15 5 -3 9 1 9 9 0 17 -3 19 -12 6z"/>
<path d="M10025 3090 c-3 -5 -2 -10 4 -10 5 0 13 5 16 10 3 6 2 10 -4 10 -5 0
-13 -4 -16 -10z"/>
<path d="M8920 3059 c5 -17 7 -36 4 -40 -3 -5 0 -9 7 -9 7 0 9 -3 6 -7 -4 -3
-3 -11 1 -17 5 -6 15 -38 22 -71 8 -33 25 -77 38 -99 19 -31 21 -40 11 -47
-10 -5 -6 -8 10 -6 21 1 23 5 17 43 -5 40 -39 113 -57 124 -4 3 -16 39 -26 79
-10 41 -23 76 -30 78 -9 3 -10 -4 -3 -28z"/>
<path d="M6746 3065 c-5 -13 -10 -15 -13 -8 -3 9 -10 10 -21 4 -9 -5 -39 -12
-67 -16 -68 -9 -109 -28 -173 -77 -56 -44 -122 -132 -122 -165 0 -10 -5 -24
-11 -30 -5 -5 -10 -26 -9 -44 0 -19 1 -44 2 -56 0 -13 5 -20 13 -17 21 8 30
-18 11 -31 -22 -16 -11 -42 20 -48 17 -3 28 1 35 14 13 25 31 24 57 -4 14 -15
19 -30 16 -44 -6 -21 -6 -22 -37 -2 -38 23 -47 24 -47 4 0 -8 5 -15 10 -15 6
0 10 -6 10 -14 0 -7 9 -16 20 -19 11 -3 167 -4 346 -4 253 2 328 5 332 15 2 6
9 9 14 5 7 -4 9 2 6 15 -4 15 -2 22 8 22 8 0 14 5 14 11 0 5 5 7 10 4 6 -3 10
1 10 9 0 9 7 16 15 16 10 0 15 10 15 28 0 15 5 33 12 40 14 14 21 102 8 102
-6 0 -10 12 -10 28 0 15 -10 38 -22 52 -13 14 -29 38 -37 53 -8 15 -38 48 -67
72 -60 51 -168 86 -271 88 -48 1 -63 4 -65 16 -3 13 -5 12 -12 -4z m138 -60
c13 -9 31 -12 41 -9 15 6 17 3 11 -19 -4 -16 -2 -27 4 -27 9 0 14 14 11 33 -1
5 3 6 9 2 6 -4 10 -16 8 -28 -2 -14 5 -25 22 -34 14 -7 33 -27 42 -45 10 -18
18 -28 18 -23 0 6 9 16 19 22 16 10 18 9 14 -8 -3 -11 0 -19 6 -19 7 0 10 -4
7 -9 -4 -5 -2 -11 4 -13 5 -1 11 -15 12 -30 1 -16 7 -28 13 -28 5 0 -1 -6 -15
-14 -31 -16 -40 -12 -40 20 0 14 -6 24 -15 24 -8 0 -12 6 -9 13 5 13 -34 47
-71 61 -35 14 -105 16 -105 3 -1 -7 -6 0 -13 16 l-12 27 -25 -23 c-14 -13 -33
-26 -42 -30 -24 -9 -33 9 -11 22 16 9 16 10 -4 11 -12 0 -23 5 -25 12 -3 8
-14 7 -38 -5 -19 -10 -43 -14 -54 -11 -20 6 -20 5 -5 -11 16 -16 18 -16 43 0
14 10 26 13 26 9 0 -5 5 -2 10 6 5 8 10 11 10 5 -1 -29 -27 -41 -83 -41 -41 1
-54 4 -44 11 12 9 12 12 1 23 -18 17 -27 15 -20 -4 3 -9 2 -12 -5 -9 -13 9
-109 -26 -109 -39 0 -5 -10 -20 -22 -33 -19 -20 -19 -23 -4 -23 14 0 13 -5 -8
-27 -30 -32 -36 -28 -40 21 -3 29 2 41 20 55 13 11 24 22 24 25 0 20 76 70 92
60 7 -4 8 -3 4 5 -4 6 0 14 9 18 10 3 20 1 24 -5 7 -12 33 0 30 14 -5 29 2 35
32 29 29 -7 31 -5 26 14 -4 18 -2 20 21 14 15 -3 30 -11 34 -17 5 -7 8 -4 8 7
0 23 17 22 32 -3 17 -27 28 -25 28 6 0 25 2 26 41 20 22 -4 51 -13 63 -21z
m176 -115 c0 -5 -5 -10 -11 -10 -5 0 -7 5 -4 10 3 6 8 10 11 10 2 0 4 -4 4
-10z m-220 -10 c0 -5 -5 -10 -11 -10 -5 0 -7 5 -4 10 3 6 8 10 11 10 2 0 4 -4
4 -10z m12 -56 c-9 -16 -10 -14 -9 8 1 15 6 23 11 18 4 -4 4 -16 -2 -26z m-82
16 c0 -5 -4 -10 -9 -10 -6 0 -13 5 -16 10 -3 6 1 10 9 10 9 0 16 -4 16 -10z
m-94 -45 c-21 -16 -32 -13 -21 4 3 6 14 11 23 11 15 -1 15 -2 -2 -15z m99 -5
c-3 -5 -11 -10 -16 -10 -6 0 -7 5 -4 10 3 6 11 10 16 10 6 0 7 -4 4 -10z m235
-79 c0 -12 -20 -25 -27 -18 -7 7 6 27 18 27 5 0 9 -4 9 -9z m-350 -96 c0 -3
-21 -26 -47 -51 -41 -38 -49 -42 -55 -27 -11 30 -9 43 10 43 9 0 28 9 42 20
24 19 50 26 50 15z m469 -19 c10 -12 9 -14 -7 -9 -13 3 -21 -2 -25 -16 -3 -12
-18 -23 -38 -29 -42 -11 -49 -8 -42 19 5 17 11 20 34 15 21 -4 27 -2 23 8 -5
12 5 19 37 25 4 0 12 -5 18 -13z m-203 -21 c19 -19 18 -25 -6 -25 -23 0 -70
28 -70 41 0 13 60 1 76 -16z"/>
<path d="M6680 2969 c0 -5 5 -7 10 -4 6 3 10 8 10 11 0 2 -4 4 -10 4 -5 0 -10
-5 -10 -11z"/>
<path d="M6830 2959 c0 -5 5 -7 10 -4 6 3 10 8 10 11 0 2 -4 4 -10 4 -5 0 -10
-5 -10 -11z"/>
<path d="M6670 2920 c0 -5 5 -10 10 -10 6 0 10 5 10 10 0 6 -4 10 -10 10 -5 0
-10 -4 -10 -10z"/>
<path d="M10200 3056 c0 -2 7 -6 15 -10 8 -3 15 -1 15 4 0 6 -7 10 -15 10 -8
0 -15 -2 -15 -4z"/>
<path d="M11620 3044 c0 -8 5 -12 10 -9 6 3 10 10 10 16 0 5 -4 9 -10 9 -5 0
-10 -7 -10 -16z"/>
<path d="M4155 3040 c-3 -5 3 -10 15 -10 12 0 18 5 15 10 -3 6 -10 10 -15 10
-5 0 -12 -4 -15 -10z"/>
<path d="M8560 3029 c0 -5 5 -7 10 -4 6 3 10 8 10 11 0 2 -4 4 -10 4 -5 0 -10
-5 -10 -11z"/>
<path d="M9904 3025 c8 -8 20 -15 27 -15 7 0 4 6 -7 15 -25 19 -40 19 -20 0z"/>
<path d="M17410 3035 c0 -5 5 -17 10 -25 5 -8 10 -10 10 -5 0 6 -5 17 -10 25
-5 8 -10 11 -10 5z"/>
<path d="M12945 3020 c3 -5 8 -10 11 -10 2 0 4 5 4 10 0 6 -5 10 -11 10 -5 0
-7 -4 -4 -10z"/>
<path d="M3796 3012 c-3 -6 -1 -14 5 -17 14 -9 20 -2 10 14 -6 8 -11 9 -15 3z"/>
<path d="M4185 3000 c-3 -5 1 -10 9 -10 9 0 16 5 16 10 0 6 -4 10 -9 10 -6 0
-13 -4 -16 -10z"/>
<path d="M8471 2994 c0 -11 3 -14 6 -6 3 7 2 16 -1 19 -3 4 -6 -2 -5 -13z"/>
<path d="M3747 2960 c-6 -23 3 -32 22 -21 9 6 10 10 2 15 -6 4 -9 12 -6 17 4
5 2 9 -3 9 -5 0 -12 -9 -15 -20z"/>
<path d="M4210 2970 c0 -5 5 -10 10 -10 6 0 10 5 10 10 0 6 -4 10 -10 10 -5 0
-10 -4 -10 -10z"/>
<path d="M2976 2959 c3 -6 0 -15 -7 -20 -11 -7 -11 -9 2 -9 9 0 18 3 22 6 8 8
-3 34 -15 34 -5 0 -6 -5 -2 -11z"/>
<path d="M3290 2957 c0 -14 -5 -17 -22 -11 -20 6 -21 5 -9 -10 11 -14 11 -16
-2 -16 -14 0 -14 -3 -2 -27 7 -14 17 -29 22 -32 18 -13 43 -61 43 -83 -1 -21
-3 -20 -30 12 -30 36 -39 30 -19 -14 14 -30 45 -40 55 -17 4 9 6 20 5 24 -1 5
3 6 8 2 14 -8 62 5 55 16 -13 22 27 6 45 -17 12 -15 21 -21 21 -15 0 20 -38
54 -62 57 -13 1 -25 3 -27 3 -3 1 3 7 13 14 18 13 18 15 1 40 -14 22 -15 30
-5 42 7 9 10 18 8 21 -8 8 -58 -7 -58 -17 0 -5 -7 -9 -16 -9 -8 0 -12 4 -9 10
3 5 1 18 -4 27 -10 17 -10 17 -11 0z"/>
<path d="M3796 2961 c-3 -4 4 -7 14 -6 27 2 33 10 10 12 -11 1 -22 -2 -24 -6z"/>
<path d="M11490 2960 c8 -5 20 -10 25 -10 6 0 3 5 -5 10 -8 5 -19 10 -25 10
-5 0 -3 -5 5 -10z"/>
<path d="M8727 2937 c-4 -16 -3 -54 3 -85 5 -31 11 -68 12 -82 2 -14 7 -25 12
-25 12 0 8 126 -4 140 -5 6 -10 26 -12 45 l-3 35 -8 -28z"/>
<path d="M3672 2930 c-19 -12 -33 -30 -37 -49 -8 -37 -24 -42 -17 -5 4 24 3
25 -16 13 -11 -7 -18 -17 -15 -21 2 -5 0 -14 -6 -21 -8 -10 0 -13 31 -14 23
-1 44 -6 47 -10 3 -4 17 -9 30 -11 23 -4 23 -4 5 21 -14 19 -22 22 -32 15 -7
-6 -16 -8 -20 -4 -11 12 29 36 60 36 15 0 28 4 28 9 0 6 -18 8 -40 5 -51 -6
-51 2 2 25 29 12 37 19 26 23 -8 4 -29 -2 -46 -12z"/>
<path d="M3836 2935 c-11 -8 -15 -15 -9 -15 6 0 16 7 23 15 16 19 11 19 -14 0z"/>
<path d="M3968 2937 c-29 -11 -37 -27 -15 -27 6 0 4 -5 -5 -11 -10 -5 -18 -19
-18 -29 0 -15 10 -10 45 26 25 24 45 47 45 49 0 8 -22 4 -52 -8z"/>
<path d="M8566 2933 c-6 -14 -5 -15 5 -6 7 7 10 15 7 18 -3 3 -9 -2 -12 -12z"/>
<path d="M10069 2938 c-1 -7 -1 -16 -1 -19 1 -4 -15 -10 -36 -14 -35 -8 -36
-8 -12 -15 26 -8 25 -9 -30 -14 -9 0 -14 -9 -12 -23 3 -24 -1 -27 -42 -37 -23
-6 -27 -4 -23 8 8 20 -34 32 -60 17 -14 -9 -12 -9 14 -5 l33 6 -17 -32 c-9
-18 -29 -38 -44 -44 -21 -7 -27 -15 -23 -28 3 -10 1 -18 -5 -18 -6 0 -11 -4
-11 -10 0 -5 8 -10 17 -10 9 0 13 -3 10 -7 -4 -3 -2 -11 3 -18 7 -8 2 -16 -15
-25 -34 -18 -31 -27 11 -32 25 -3 39 1 47 12 7 9 27 27 45 40 35 26 43 43 15
33 -33 -12 5 24 40 38 l31 13 -34 7 c-19 4 -36 4 -38 0 -3 -10 -52 -1 -52 9 0
12 28 20 71 20 21 0 39 -5 39 -11 0 -5 4 -8 8 -5 5 3 26 -6 48 -19 21 -14 33
-25 25 -25 -18 0 22 -40 40 -40 6 0 17 -8 24 -17 11 -14 16 -15 44 -3 21 8 48
10 79 6 111 -17 139 -17 152 -1 12 14 10 16 -16 10 -16 -4 -34 -8 -41 -10 -6
-2 -14 3 -17 11 -4 10 2 14 19 14 13 0 27 5 30 10 3 6 -2 10 -12 10 -11 0 -24
5 -30 11 -9 9 -22 8 -53 -5 -49 -19 -48 -19 -52 -1 -2 10 -7 12 -18 5 -13 -9
-13 -11 0 -20 13 -9 13 -10 0 -10 -28 0 -60 12 -54 21 3 5 -2 9 -10 9 -9 0
-16 5 -16 10 0 10 27 15 63 12 11 -1 16 2 11 10 -5 8 0 9 14 6 25 -7 26 -4 12
23 -11 20 3 28 15 9 3 -5 13 -10 21 -10 8 0 14 5 14 10 0 6 -8 10 -17 10 -15
0 -15 2 -4 9 10 7 -2 14 -43 27 -52 16 -56 19 -39 32 16 12 16 13 -10 8 -15
-2 -36 -7 -46 -11 -22 -7 -38 10 -20 21 8 4 7 9 -2 15 -11 7 -10 9 4 9 21 0
22 16 1 24 -25 10 -44 7 -45 -6z m-37 -110 c-11 -11 -32 -3 -32 12 0 4 9 6 21
3 13 -4 17 -9 11 -15z m78 7 c-14 -8 -34 -14 -45 -14 -20 0 -20 0 -1 14 11 8
31 15 45 15 l26 -1 -25 -14z m80 -5 c0 -5 -2 -10 -4 -10 -3 0 -8 5 -11 10 -3
6 -1 10 4 10 6 0 11 -4 11 -10z m-160 -40 c0 -5 -4 -10 -10 -10 -5 0 -10 5
-10 10 0 6 5 10 10 10 6 0 10 -4 10 -10z"/>
<path d="M3790 2929 c0 -5 5 -7 10 -4 6 3 10 8 10 11 0 2 -4 4 -10 4 -5 0 -10
-5 -10 -11z"/>
<path d="M4317 2931 c6 -7 9 -19 7 -26 -3 -7 -1 -16 5 -20 19 -11 12 32 -6 46
-15 11 -16 11 -6 0z"/>
<path d="M8500 2898 c-7 -24 -12 -45 -12 -48 0 -3 -3 -9 -7 -15 -4 -5 -14 -32
-21 -59 -8 -28 -15 -45 -18 -38 -6 19 -22 3 -22 -23 0 -13 -4 -27 -10 -30 -26
-16 -6 -23 28 -9 20 8 42 16 47 17 6 1 13 6 17 11 8 12 -2 37 -13 30 -13 -7
-11 9 5 58 15 45 31 148 24 148 -3 0 -11 -19 -18 -42z"/>
<path d="M4251 2924 c-1 -15 23 -64 32 -64 4 0 7 7 7 15 0 8 -4 15 -8 15 -5 0
-14 10 -20 23 -6 12 -11 17 -11 11z"/>
<path d="M15645 2920 c3 -5 11 -10 16 -10 6 0 7 5 4 10 -3 6 -11 10 -16 10 -6
0 -7 -4 -4 -10z"/>
<path d="M13031 2850 c-16 -76 -12 -82 9 -15 23 71 22 65 11 65 -5 0 -14 -23
-20 -50z"/>
<path d="M15650 2896 c0 -2 7 -9 15 -16 9 -7 15 -8 15 -2 0 5 -7 12 -15 16 -8
3 -15 4 -15 2z"/>
<path d="M8535 2870 c-4 -6 -9 -45 -12 -88 -5 -70 -4 -75 10 -57 8 11 17 32
20 45 3 16 5 10 6 -17 1 -47 21 -60 21 -14 0 16 3 42 6 58 5 23 0 36 -19 57
-16 17 -28 23 -32 16z m27 -52 c-9 -9 -12 -7 -12 12 0 19 3 21 12 12 9 -9 9
-15 0 -24z"/>
<path d="M15550 2869 c0 -5 6 -9 13 -9 6 -1 -1 -7 -18 -14 -24 -10 -26 -13
-12 -19 9 -3 17 -3 17 1 0 5 11 12 25 18 l26 9 -26 12 c-14 6 -25 7 -25 2z"/>
<path d="M3713 2855 c0 -18 23 -20 33 -3 4 7 3 8 -4 4 -7 -4 -12 -2 -12 3 0 6
-4 11 -8 11 -5 0 -9 -7 -9 -15z"/>
<path d="M3822 2849 c-19 -30 -11 -32 11 -3 10 13 14 24 10 24 -5 0 -14 -9
-21 -21z"/>
<path d="M4284 2839 c-14 -16 -13 -19 11 -35 17 -11 25 -23 22 -36 -3 -10 -1
-21 4 -24 5 -3 9 4 9 15 0 10 3 27 7 37 4 12 3 15 -5 10 -7 -4 -12 -3 -12 3 0
5 5 13 10 16 6 3 10 12 10 20 0 19 -37 15 -56 -6z"/>
<path d="M3488 2832 c-22 -12 -21 -12 10 -7 26 6 32 3 33 -12 0 -16 1 -16 9 2
5 11 9 22 9 25 2 11 -39 6 -61 -8z"/>
<path d="M3891 2834 c-11 -8 -21 -20 -21 -26 0 -27 -73 -63 -99 -49 -9 5 -23
6 -29 2 -8 -5 1 -12 25 -19 36 -11 41 -10 89 24 69 47 90 70 71 77 -8 3 -24
-1 -36 -9z"/>
<path d="M8707 2823 c-4 -3 -7 -29 -8 -57 -1 -40 -3 -45 -9 -26 l-7 25 -12
-28 c-6 -16 -11 -30 -11 -32 0 -2 16 -3 35 -2 l36 1 -6 60 c-7 66 -8 69 -18
59z"/>
<path d="M3220 2801 c0 -12 6 -21 16 -21 9 0 14 7 12 17 -5 25 -28 28 -28 4z"/>
<path d="M3555 2810 c-3 -6 1 -13 9 -16 9 -3 14 -10 11 -14 -5 -8 36 -22 44
-15 2 3 -1 5 -7 5 -7 0 -12 7 -12 15 0 19 -36 39 -45 25z"/>
<path d="M3485 2799 c-12 -19 5 -23 22 -6 16 16 16 17 1 17 -9 0 -20 -5 -23
-11z"/>
<path d="M15567 2799 c7 -7 15 -10 18 -7 3 3 -2 9 -12 12 -14 6 -15 5 -6 -5z"/>
<path d="M5042 2780 c0 -14 2 -19 5 -12 2 6 2 18 0 25 -3 6 -5 1 -5 -13z"/>
<path d="M15640 2796 c0 -2 9 -6 20 -9 11 -3 20 -1 20 4 0 5 -9 9 -20 9 -11 0
-20 -2 -20 -4z"/>
<path d="M17270 2791 c0 -6 4 -13 10 -16 6 -3 7 1 4 9 -7 18 -14 21 -14 7z"/>
<path d="M3647 2774 c6 -15 23 -19 23 -5 0 5 -7 11 -14 14 -10 4 -13 1 -9 -9z"/>
<path d="M8901 2765 c-1 -54 11 -105 25 -105 15 0 13 16 -12 95 -11 38 -12 39
-13 10z"/>
<path d="M1912 2764 c-12 -8 -22 -22 -22 -30 0 -8 -4 -14 -10 -14 -5 0 -21
-11 -35 -25 -25 -26 -30 -50 -19 -93 6 -21 8 -22 24 -7 10 9 16 24 13 35 -3
12 3 23 16 32 12 7 21 20 21 28 0 9 15 22 33 29 30 13 31 14 9 18 -23 4 -23 5
-6 24 21 23 7 25 -24 3z"/>
<path d="M15476 2771 c-4 -7 -5 -15 -2 -18 9 -9 19 4 14 18 -4 11 -6 11 -12 0z"/>
<path d="M3040 2760 c-8 -5 -12 -11 -10 -14 3 -2 14 2 24 10 22 15 10 19 -14
4z"/>
<path d="M3377 2748 c-8 -28 -6 -29 20 -1 20 21 21 23 4 23 -11 0 -21 -9 -24
-22z"/>
<path d="M3490 2760 c0 -5 5 -10 10 -10 6 0 10 5 10 10 0 6 -4 10 -10 10 -5 0
-10 -4 -10 -10z"/>
<path d="M8606 2744 c-4 -14 -5 -29 -2 -31 3 -3 8 7 12 21 3 15 4 29 1 32 -2
3 -8 -7 -11 -22z"/>
<path d="M12930 2754 c0 -8 5 -12 10 -9 6 3 10 10 10 16 0 5 -4 9 -10 9 -5 0
-10 -7 -10 -16z"/>
<path d="M10920 2751 c0 -5 7 -11 14 -14 10 -4 13 -1 9 9 -6 15 -23 19 -23 5z"/>
<path d="M3236 2742 c-4 -7 -3 -38 3 -71 1 -2 11 8 22 23 12 15 20 28 18 29
-2 2 -11 8 -21 15 -9 7 -19 9 -22 4z"/>
<path d="M10575 2740 c-4 -6 7 -10 25 -10 18 0 29 4 25 10 -3 6 -15 10 -25 10
-10 0 -22 -4 -25 -10z"/>
<path d="M11076 2721 c-9 -10 -16 -19 -16 -22 0 -2 25 -4 55 -5 30 0 55 4 55
8 0 4 -7 8 -16 8 -9 0 -14 6 -11 13 7 20 -48 19 -67 -2z"/>
<path d="M2016 2715 c-4 -11 2 -15 26 -15 26 0 29 2 18 15 -7 8 -18 15 -25 15
-7 0 -15 -7 -19 -15z"/>
<path d="M3440 2719 c0 -5 5 -7 10 -4 6 3 10 8 10 11 0 2 -4 4 -10 4 -5 0 -10
-5 -10 -11z"/>
<path d="M12926 2714 c-4 -9 -4 -19 -1 -22 2 -3 7 3 11 12 4 9 4 19 1 22 -2 3
-7 -3 -11 -12z"/>
<path d="M13018 2691 c-2 -17 -1 -28 3 -26 10 7 18 55 9 55 -4 0 -10 -13 -12
-29z"/>
<path d="M14542 2706 c-5 -6 -12 -24 -16 -39 -6 -26 -5 -27 15 -17 11 7 18 14
15 17 -3 3 4 13 16 23 l21 17 -21 5 c-12 3 -25 1 -30 -6z"/>
<path d="M2904 2699 c-3 -6 -1 -16 5 -22 8 -8 11 -5 11 11 0 24 -5 28 -16 11z"/>
<path d="M4025 2699 c-9 -14 -2 -20 42 -35 49 -17 60 -8 28 22 -27 25 -59 31
-70 13z"/>
<path d="M2515 2690 c3 -5 10 -10 16 -10 5 0 9 5 9 10 0 6 -7 10 -16 10 -8 0
-12 -4 -9 -10z"/>
<path d="M2680 2690 c20 -13 33 -13 25 0 -3 6 -14 10 -23 10 -15 0 -15 -2 -2
-10z"/>
<path d="M2945 2689 c-4 -6 -5 -12 -2 -15 2 -3 7 2 10 11 7 17 1 20 -8 4z"/>
<path d="M1963 2673 c0 -10 5 -21 10 -25 15 -10 -39 -87 -69 -98 -23 -9 -51
-57 -39 -68 2 -3 0 -11 -5 -18 -8 -9 -3 -18 16 -33 44 -35 48 -31 45 49 -2 51
1 56 50 93 30 23 41 26 62 18 14 -6 30 -18 36 -28 6 -11 11 -13 11 -5 0 10 4
10 16 -2 18 -18 15 -47 -5 -54 -10 -3 -12 1 -9 15 4 15 0 19 -16 18 -12 -1
-21 -8 -21 -15 0 -7 -6 -15 -14 -18 -8 -3 -11 0 -7 7 4 6 2 11 -3 11 -6 0 -11
5 -11 10 0 6 7 10 15 10 8 0 15 4 15 10 0 17 -30 -2 -46 -29 -8 -14 -13 -18
-10 -8 10 32 -15 17 -30 -18 -18 -43 -18 -49 1 -41 20 7 19 1 -5 -32 -25 -34
-18 -64 18 -79 15 -6 73 -14 128 -16 56 -3 106 -7 111 -10 6 -4 28 -4 49 -2
21 2 60 4 86 4 55 1 79 21 111 91 23 51 34 115 17 105 -5 -3 -10 -1 -10 4 0 6
-6 11 -14 11 -18 0 -30 31 -16 40 7 5 6 11 -5 20 -24 20 -38 0 -25 -34 5 -15
6 -25 1 -22 -5 4 -11 2 -13 -3 -1 -4 -12 -11 -24 -15 -16 -5 -23 0 -32 19 -7
16 -17 23 -27 19 -14 -6 -21 18 -16 49 1 4 -4 7 -11 6 -7 -2 -28 1 -47 5 -24
6 -36 4 -42 -5 -7 -11 -9 -10 -9 4 0 20 -16 23 -23 5 -3 -8 -6 -6 -6 4 -1 11
-6 15 -16 12 -10 -4 -15 0 -15 11 0 10 -4 13 -12 8 -19 -11 -38 -12 -38 -2 0
5 5 9 12 9 6 0 8 3 5 7 -4 3 -15 -1 -24 -9 -32 -27 -49 -33 -29 -10 23 26 13
41 -14 24 -16 -10 -18 -9 -14 3 5 11 -1 15 -18 15 -17 0 -25 -6 -25 -17z m303
-111 c-4 -3 -11 0 -16 8 -15 24 -11 33 6 15 9 -9 13 -19 10 -23z m-38 -18 c11
3 24 -5 36 -21 l19 -26 -32 5 c-23 3 -31 1 -31 -11 0 -14 -2 -14 -10 -1 -9 13
-11 13 -21 0 -8 -12 -9 -10 -4 9 5 15 3 21 -3 17 -12 -7 -23 17 -14 31 11 17
37 21 40 6 2 -8 11 -12 20 -9z m179 -66 c-3 -7 -5 -2 -5 12 0 14 2 19 5 13 2
-7 2 -19 0 -25z m-427 -68 c0 -5 -5 -10 -11 -10 -5 0 -7 5 -4 10 3 6 8 10 11
10 2 0 4 -4 4 -10z"/>
<path d="M3185 2670 c-37 -18 -40 -53 -7 -75 32 -23 17 -37 -32 -30 -34 5 -45
3 -60 -13 -10 -11 -16 -29 -14 -39 6 -27 52 -18 120 24 53 32 58 39 58 70 0
19 -8 45 -17 56 -17 21 -20 21 -48 7z"/>
<path d="M3703 2675 c2 -5 36 -13 76 -17 56 -6 78 -4 93 6 19 14 19 14 -9 20
-44 10 -164 3 -160 -9z"/>
<path d="M10466 2678 c3 -4 11 -5 19 -1 21 7 19 12 -4 10 -11 0 -18 -5 -15 -9z"/>
<path d="M9030 2668 c0 -18 18 -34 28 -24 3 4 -2 14 -11 23 -16 16 -17 16 -17
1z"/>
<path d="M11026 2663 c6 -15 4 -16 -7 -5 -31 29 -63 6 -52 -38 3 -13 0 -25 -7
-30 -10 -6 -9 -14 4 -40 8 -18 13 -36 10 -41 -3 -5 13 -9 35 -9 30 0 41 4 41
15 0 8 -4 15 -10 15 -5 0 -13 12 -16 28 -4 15 -13 34 -21 44 -18 20 1 36 22
18 7 -6 15 -7 17 -3 9 17 2 56 -10 60 -8 3 -10 -1 -6 -14z"/>
<path d="M11093 2649 c-35 -22 -51 -55 -34 -72 7 -7 12 -5 17 6 3 10 17 17 31
17 26 0 113 46 113 60 0 15 -49 7 -55 -9 -6 -14 -7 -14 -16 2 -13 22 -17 21
-56 -4z"/>
<path d="M2180 2650 c0 -5 5 -10 10 -10 6 0 10 5 10 10 0 6 -4 10 -10 10 -5 0
-10 -4 -10 -10z"/>
<path d="M10504 2640 c-5 -5 -23 -10 -39 -11 -40 -2 -68 -10 -61 -17 3 -3 -1
-16 -10 -30 -19 -29 -18 -30 26 -21 25 4 28 7 11 8 -19 1 -21 4 -11 16 6 8 9
19 5 25 -10 16 22 12 39 -6 15 -14 20 -11 17 9 0 4 5 7 13 7 8 0 16 7 20 15 6
18 4 19 -10 5z"/>
<path d="M15530 2641 c0 -5 5 -13 10 -16 6 -3 10 -2 10 4 0 5 -4 13 -10 16 -5
3 -10 2 -10 -4z"/>
<path d="M10374 2624 c3 -9 6 -18 6 -20 0 -2 4 -4 9 -4 5 0 7 9 4 20 -3 11
-10 20 -15 20 -6 0 -7 -7 -4 -16z"/>
<path d="M3452 2608 c5 -15 28 -18 29 -3 0 6 -7 12 -17 13 -10 3 -15 -1 -12
-10z"/>
<path d="M15430 2610 c0 -5 5 -10 11 -10 5 0 7 5 4 10 -3 6 -8 10 -11 10 -2 0
-4 -4 -4 -10z"/>
<path d="M2605 2600 c-3 -5 3 -10 14 -10 12 0 21 5 21 10 0 6 -6 10 -14 10 -8
0 -18 -4 -21 -10z"/>
<path d="M9770 2600 c0 -5 6 -10 14 -10 8 0 18 5 21 10 3 6 -3 10 -14 10 -12
0 -21 -4 -21 -10z"/>
<path d="M14505 2600 c-3 -5 -2 -10 4 -10 5 0 13 5 16 10 3 6 2 10 -4 10 -5 0
-13 -4 -16 -10z"/>
<path d="M10535 2590 c-3 -5 -15 -10 -26 -10 -11 0 -17 -4 -14 -10 9 -15 31
-12 49 6 9 8 20 12 26 9 5 -3 10 -1 10 4 0 14 -37 14 -45 1z"/>
<path d="M14563 2593 c-8 -3 -11 -14 -7 -29 7 -28 -3 -31 -22 -6 -13 16 -13
16 -14 -1 0 -10 7 -20 15 -23 19 -8 48 15 41 31 -2 7 1 18 7 24 11 11 2 13
-20 4z"/>
<path d="M15640 2596 c0 -2 6 -9 14 -15 11 -9 16 -9 22 0 4 8 3 9 -4 5 -7 -4
-12 -2 -12 3 0 6 -4 11 -10 11 -5 0 -10 -2 -10 -4z"/>
<path d="M3810 2572 c-16 -5 -50 -37 -50 -47 0 -4 14 3 31 15 35 26 52 19 21
-9 -14 -12 -22 -30 -22 -52 -1 -28 -2 -31 -11 -16 -12 21 -29 22 -29 3 0 -19
-29 -48 -41 -41 -19 13 -8 -41 18 -79 14 -23 38 -58 52 -79 13 -21 57 -63 95
-94 l71 -55 63 7 c52 5 67 4 82 -10 14 -13 20 -14 26 -3 6 9 10 6 14 -12 8
-35 32 -36 70 -2 37 34 35 68 -6 78 -13 3 -24 12 -24 19 0 7 -7 18 -16 26 -13
10 -17 10 -25 -2 -5 -8 -9 -9 -9 -3 0 6 11 20 25 32 14 13 23 27 20 32 -4 6 4
9 17 7 19 -2 23 2 21 21 -3 20 0 21 17 12 23 -12 50 -60 50 -89 0 -11 3 -22 8
-24 9 -6 7 38 -3 75 -5 20 -2 32 9 44 20 19 16 39 -7 39 -9 0 -24 9 -32 20
-16 19 -16 19 -11 -12 5 -31 4 -33 -24 -33 -17 0 -30 5 -30 10 0 6 -9 10 -21
10 -12 0 -18 -4 -13 -11 4 -7 1 -10 -7 -7 -8 3 -19 15 -26 28 -19 37 -83 56
-83 24 0 -14 -3 -14 -15 -4 -8 7 -15 19 -15 26 0 8 -7 14 -15 14 -8 0 -15 6
-15 13 0 6 -9 1 -20 -13 -11 -14 -20 -20 -20 -15 -1 6 -7 -3 -15 -20 -11 -26
-13 -27 -14 -8 -1 12 -5 23 -10 25 -12 5 -24 48 -13 48 6 0 13 11 16 25 7 26
30 25 52 -2 10 -11 13 -10 17 8 3 11 2 31 -3 42 -7 18 -9 18 -9 5 -1 -10 -6
-18 -12 -18 -7 0 -9 10 -5 25 6 24 -3 32 -29 25 -5 -2 -23 -2 -38 -1 -20 1
-27 -2 -22 -11 4 -7 1 -6 -7 3 -7 9 -20 14 -28 11z m36 -104 c-2 -18 -8 -34
-15 -36 -14 -5 -14 9 -1 42 13 35 21 33 16 -6z m188 -150 c3 -13 6 -32 6 -42
0 -29 -17 -7 -25 32 -7 36 9 45 19 10z m25 -15 c0 -25 -1 -25 -8 -8 -5 11 -7
23 -4 28 8 14 13 7 12 -20z m1 -104 c-7 -11 -14 -18 -17 -15 -3 3 0 12 7 21
18 21 23 19 10 -6z"/>
<path d="M2567 2557 c-10 -26 -9 -57 2 -57 5 0 11 7 15 15 7 19 26 20 26 1 0
-8 5 -16 10 -18 20 -6 100 4 95 13 -3 4 -12 6 -20 2 -8 -3 -15 -1 -15 4 0 5
-10 10 -22 10 -13 1 -24 7 -26 13 -2 5 -14 7 -27 4 -17 -4 -24 -1 -27 13 -3
17 -4 17 -11 0z"/>
<path d="M3503 2554 c-3 -8 -2 -18 1 -22 8 -7 41 11 41 23 0 15 -36 14 -42 -1z"/>
<path d="M14425 2550 c-3 -5 -2 -10 4 -10 5 0 13 5 16 10 3 6 2 10 -4 10 -5 0
-13 -4 -16 -10z"/>
<path d="M3417 2536 c-7 -18 1 -26 25 -26 13 0 18 6 16 17 -4 22 -34 29 -41 9z"/>
<path d="M3977 2543 c-4 -6 -2 -15 4 -18 6 -4 8 -18 5 -30 -4 -14 0 -29 9 -39
8 -8 15 -22 15 -31 0 -25 25 -12 26 15 1 14 -5 24 -17 27 -25 7 -24 19 1 26
11 3 20 12 20 20 0 20 -22 35 -28 19 -6 -18 -20 -14 -24 6 -2 12 -6 13 -11 5z"/>
<path d="M10322 2530 c-15 -25 -15 -30 1 -30 18 0 49 34 40 43 -12 12 -28 7
-41 -13z"/>
<path d="M15460 2540 c0 -5 5 -10 11 -10 5 0 7 5 4 10 -3 6 -8 10 -11 10 -2 0
-4 -4 -4 -10z"/>
<path d="M10374 2525 c-18 -15 -18 -15 10 -13 16 2 31 9 34 16 5 17 -20 15
-44 -3z"/>
<path d="M10542 2531 c-7 -4 -23 -6 -36 -4 -13 3 -28 -2 -35 -11 -12 -14 -11
-16 6 -16 29 0 83 20 83 31 0 11 -1 11 -18 0z"/>
<path d="M11800 2536 c0 -2 7 -7 16 -10 8 -3 12 -2 9 4 -6 10 -25 14 -25 6z"/>
<path d="M15417 2520 c3 -11 7 -20 9 -20 2 0 4 9 4 20 0 11 -4 20 -9 20 -5 0
-7 -9 -4 -20z"/>
<path d="M3007 2516 c-3 -8 -2 -18 3 -21 13 -8 24 15 12 27 -6 6 -11 4 -15 -6z"/>
<path d="M3340 2515 c0 -9 5 -15 11 -13 6 2 11 8 11 13 0 5 -5 11 -11 13 -6 2
-11 -4 -11 -13z"/>
<path d="M3576 2515 c4 -8 10 -15 15 -15 4 0 6 7 3 15 -4 8 -10 15 -15 15 -4
0 -6 -7 -3 -15z"/>
<path d="M14418 2518 c-39 -14 -35 -25 6 -20 25 3 33 8 29 18 -3 8 -6 14 -7
13 0 0 -13 -5 -28 -11z"/>
<path d="M14565 2520 c-3 -5 -2 -10 4 -10 5 0 13 5 16 10 3 6 2 10 -4 10 -5 0
-13 -4 -16 -10z"/>
<path d="M3903 2460 c-11 -16 -10 -18 2 -14 8 4 15 12 15 20 0 19 -3 18 -17
-6z"/>
<path d="M4072 2439 c2 -6 8 -10 13 -10 5 0 11 4 13 10 2 6 -4 11 -13 11 -9 0
-15 -5 -13 -11z"/>
<path d="M4305 2420 c4 -19 16 -47 26 -62 11 -14 19 -33 19 -41 0 -23 11 -47
21 -47 15 0 10 65 -6 86 -8 10 -15 27 -15 37 0 9 -6 17 -12 17 -10 0 -10 2 -1
8 8 5 9 13 3 22 -8 12 -10 12 -10 1 0 -11 -3 -11 -16 0 -15 12 -16 10 -9 -21z"/>
<path d="M5724 2378 c3 -17 8 -34 11 -36 11 -11 16 9 10 37 -9 42 -29 41 -21
-1z"/>
<path d="M5006 2381 c-3 -5 1 -11 9 -15 15 -6 29 7 18 18 -9 9 -21 8 -27 -3z"/>
<path d="M5411 2336 c-6 -16 -10 -34 -8 -40 3 -6 10 2 16 18 6 16 10 34 8 40
-3 6 -10 -2 -16 -18z"/>
<path d="M5386 2262 c-3 -6 -3 -17 0 -25 3 -8 1 -18 -5 -22 -6 -3 -11 -34 -11
-68 0 -50 -4 -66 -20 -79 -12 -11 -22 -13 -26 -7 -7 12 -74 -48 -74 -67 0 -7
5 -25 11 -41 l10 -28 22 38 c11 20 28 39 37 42 8 3 21 19 27 36 8 20 17 30 26
26 7 -3 14 0 14 6 1 7 4 47 7 90 6 72 -3 123 -18 99z"/>
<path d="M5748 2216 c2 -20 8 -36 13 -36 13 0 11 34 -4 54 -12 16 -13 14 -9
-18z"/>
<path d="M4186 2207 c3 -10 9 -15 12 -12 3 3 0 11 -7 18 -10 9 -11 8 -5 -6z"/>
<path d="M4290 2180 c0 -5 5 -10 11 -10 5 0 7 5 4 10 -3 6 -8 10 -11 10 -2 0
-4 -4 -4 -10z"/>
<path d="M5750 2069 c0 -56 3 -100 6 -96 10 9 13 187 3 193 -5 3 -9 -39 -9
-97z"/>
<path d="M9118 2112 c-21 -4 -21 -4 -6 -39 20 -45 69 -114 77 -108 10 5 -4 86
-18 113 -14 27 -33 39 -53 34z"/>
<path d="M8420 2038 c0 -7 -6 -25 -14 -40 -14 -27 -11 -72 5 -63 4 3 15 -8 24
-25 8 -16 18 -30 21 -30 4 0 -1 67 -12 138 -5 30 -24 46 -24 20z"/>
<path d="M5856 1988 c-4 -14 -6 -35 -4 -45 4 -17 5 -17 14 2 6 11 8 31 4 45
l-7 25 -7 -27z"/>
<path d="M6052 1917 c0 -30 4 -60 9 -68 6 -9 9 7 9 48 0 34 -4 64 -9 67 -4 3
-9 -18 -9 -47z"/>
<path d="M8746 1957 c3 -10 9 -15 12 -12 3 3 0 11 -7 18 -10 9 -11 8 -5 -6z"/>
<path d="M5170 1925 c0 -8 9 -13 20 -12 11 1 20 4 20 8 0 4 -9 9 -20 12 -13 3
-20 0 -20 -8z"/>
<path d="M5685 1930 c3 -5 8 -10 11 -10 2 0 4 5 4 10 0 6 -5 10 -11 10 -5 0
-7 -4 -4 -10z"/>
<path d="M8326 1921 c-3 -5 6 -12 20 -15 29 -8 39 -3 29 13 -8 13 -42 14 -49
2z"/>
<path d="M8840 1920 c-4 -27 2 -65 11 -74 5 -6 9 -1 8 15 -1 32 -16 78 -19 59z"/>
<path d="M5190 1890 c0 -5 4 -10 9 -10 6 0 13 5 16 10 3 6 -1 10 -9 10 -9 0
-16 -4 -16 -10z"/>
<path d="M5520 1853 c-1 -24 -2 -25 -11 -11 -9 17 -37 15 -49 -3 -3 -5 -19 -2
-35 7 -18 9 -32 11 -38 5 -7 -7 -16 -7 -29 0 -12 6 -18 6 -18 -1 0 -5 7 -10
15 -10 9 0 19 -10 24 -21 4 -13 18 -23 32 -25 13 -1 69 -10 124 -19 139 -24
139 -24 143 4 2 15 -3 28 -12 33 -9 5 -16 17 -16 27 0 21 -24 31 -87 37 -41 4
-43 3 -43 -23z"/>
<path d="M8520 1850 c0 -5 5 -10 11 -10 5 0 7 5 4 10 -3 6 -8 10 -11 10 -2 0
-4 -4 -4 -10z"/>
<path d="M8572 1839 c2 -7 15 -16 29 -20 38 -11 119 -10 119 1 0 11 -2 12 -40
15 -14 1 -45 5 -69 9 -34 7 -42 5 -39 -5z"/>
<path d="M5980 1833 c0 -6 -10 -13 -22 -15 -13 -2 -24 -11 -26 -20 -3 -15 2
-17 30 -14 18 3 36 5 41 5 11 1 8 15 -8 37 -8 10 -15 14 -15 7z"/>
<path d="M5836 1797 c9 -24 36 -37 62 -30 32 8 27 26 -5 20 -18 -3 -35 1 -46
11 -16 15 -17 15 -11 -1z"/>
<path d="M5722 1770 c0 -19 2 -27 5 -17 2 9 2 25 0 35 -3 9 -5 1 -5 -18z"/>
<path d="M16380 1605 c0 -8 -5 -15 -11 -15 -5 0 -7 -5 -3 -12 5 -7 11 -5 21 7
16 22 17 35 3 35 -5 0 -10 -7 -10 -15z"/>
<path d="M16621 1444 c-14 -32 -14 -34 5 -34 10 0 14 6 11 14 -3 7 -1 18 5 24
6 6 6 12 0 16 -5 3 -14 -6 -21 -20z"/>
<path d="M16565 1410 c-3 -5 1 -10 9 -10 9 0 16 5 16 10 0 6 -4 10 -9 10 -6 0
-13 -4 -16 -10z"/>
<path d="M16650 1400 c0 -5 5 -10 11 -10 5 0 7 5 4 10 -3 6 -8 10 -11 10 -2 0
-4 -4 -4 -10z"/>
</g>
</svg>
